o Object_5
usemtl material_0
v 0.329488818953123 -0.35675030566258853 0.20653004606369202
v 0.2733119233739193 -0.2849875254172347 0.15608250437235446
v 0.2629250431243651 -0.40680186800327944 0.20945401370428515
v 0.2067481475451614 -0.3350390877579256 0.15900647201294757
v 0.24553017108809855 -0.24272066952562663 0.24714501962380855
v 0.30170706666730224 -0.31448344977098047 0.2975925613151461
v 0.17896639525934066 -0.29277223186631757 0.2500689872644017
v 0.23514329083854438 -0.3645350121116714 0.3005165289557392
v 0.24553017108809855 -0.24272066952562663 0.24714501962380855
v 0.2733119233739193 -0.2849875254172347 0.15608250437235446
v 0.30170706666730224 -0.31448344977098047 0.2975925613151461
v 0.329488818953123 -0.35675030566258853 0.20653004606369202
v 0.23514329083854438 -0.3645350121116714 0.3005165289557392
v 0.2629250431243651 -0.40680186800327944 0.20945401370428515
v 0.17896639525934066 -0.29277223186631757 0.2500689872644017
v 0.2067481475451614 -0.3350390877579256 0.15900647201294757
v 0.30170706666730224 -0.31448344977098047 0.2975925613151461
v 0.329488818953123 -0.35675030566258853 0.20653004606369202
v 0.23514329083854438 -0.3645350121116714 0.3005165289557392
v 0.2629250431243651 -0.40680186800327944 0.20945401370428515
v 0.2733119233739193 -0.2849875254172347 0.15608250437235446
v 0.24553017108809855 -0.24272066952562663 0.24714501962380855
v 0.2067481475451614 -0.3350390877579256 0.15900647201294757
v 0.17896639525934066 -0.29277223186631757 0.2500689872644017
vt 0.59375 0.5
vt 0.75 0.5
vt 0.59375 0.625
vt 0.75 0.625
vt 0.59375 0.5
vt 0.75 0.5
vt 0.59375 0.625
vt 0.75 0.625
vt 0.125 0.125
vt 0.375 0.125
vt 0.125 0.375
vt 0.375 0.375
vt 0.125 0.125
vt 0.375 0.125
vt 0.125 0.375
vt 0.375 0.375
vt 0.59375 0.5
vt 0.75 0.5
vt 0.59375 0.625
vt 0.75 0.625
vt 0.59375 0.5
vt 0.75 0.5
vt 0.59375 0.625
vt 0.75 0.625
vn 0.2667048372535353 -0.40576183701970364 -0.8742001266323179
vn 0.2667048372535353 -0.40576183701970364 -0.8742001266323179
vn 0.2667048372535353 -0.40576183701970364 -0.8742001266323179
vn 0.2667048372535353 -0.40576183701970364 -0.8742001266323179
vn -0.2667048372535353 0.40576183701970364 0.8742001266323179
vn -0.2667048372535353 0.40576183701970364 0.8742001266323179
vn -0.2667048372535353 0.40576183701970364 0.8742001266323179
vn -0.2667048372535353 0.40576183701970364 0.8742001266323179
vn 0.7987652909991514 0.6006187387682962 -0.03508761227873085
vn 0.7987652909991514 0.6006187387682962 -0.03508761227873085
vn 0.7987652909991514 0.6006187387682962 -0.03508761227873085
vn 0.7987652909991514 0.6006187387682962 -0.03508761227873085
vn -0.7987652909991514 -0.6006187387682962 0.03508761227873085
vn -0.7987652909991514 -0.6006187387682962 0.03508761227873085
vn -0.7987652909991514 -0.6006187387682962 0.03508761227873085
vn -0.7987652909991514 -0.6006187387682962 0.03508761227873085
vn 0.5392981967587328 -0.6889226980278977 0.48429636702616413
vn 0.5392981967587328 -0.6889226980278977 0.48429636702616413
vn 0.5392981967587328 -0.6889226980278977 0.48429636702616413
vn 0.5392981967587328 -0.6889226980278977 0.48429636702616413
vn -0.5392981967587328 0.6889226980278977 -0.48429636702616413
vn -0.5392981967587328 0.6889226980278977 -0.48429636702616413
vn -0.5392981967587328 0.6889226980278977 -0.48429636702616413
vn -0.5392981967587328 0.6889226980278977 -0.48429636702616413
f 1/1/1 3/3/3 2/2/2
f 3/3/3 4/4/4 2/2/2
f 5/5/5 7/7/7 6/6/6
f 7/7/7 8/8/8 6/6/6
f 9/9/9 11/11/11 10/10/10
f 11/11/11 12/12/12 10/10/10
f 13/13/13 15/15/15 14/14/14
f 15/15/15 16/16/16 14/14/14
f 17/17/17 19/19/19 18/18/18
f 19/19/19 20/20/20 18/18/18
f 21/21/21 23/23/23 22/22/22
f 23/23/23 24/24/24 22/22/22
o Object_7
usemtl material_0
v 1.0284084651550807 0.16879109891466654 0.17582838583746424
v 0.972231569575877 0.24055387916002038 0.12538084414612669
v 0.9618446893263228 0.1187395365739756 0.17875235347805737
v 0.905667793747119 0.19050231681932944 0.1283048117867198
v 0.9444498172900562 0.2828207350516284 0.21644335939758078
v 1.0006267128692599 0.2110579548062746 0.26689090108891833
v 0.8778860414612983 0.2327691727109375 0.2193673270381739
v 0.934062937040502 0.16100639246558365 0.26981486872951144
v 0.9444498172900562 0.2828207350516284 0.21644335939758078
v 0.972231569575877 0.24055387916002038 0.12538084414612669
v 1.0006267128692599 0.2110579548062746 0.26689090108891833
v 1.0284084651550807 0.16879109891466654 0.17582838583746424
v 0.934062937040502 0.16100639246558365 0.26981486872951144
v 0.9618446893263228 0.1187395365739756 0.17875235347805737
v 0.8778860414612983 0.2327691727109375 0.2193673270381739
v 0.905667793747119 0.19050231681932944 0.1283048117867198
v 1.0006267128692599 0.2110579548062746 0.26689090108891833
v 1.0284084651550807 0.16879109891466654 0.17582838583746424
v 0.934062937040502 0.16100639246558365 0.26981486872951144
v 0.9618446893263228 0.1187395365739756 0.17875235347805737
v 0.972231569575877 0.24055387916002038 0.12538084414612669
v 0.9444498172900562 0.2828207350516284 0.21644335939758078
v 0.905667793747119 0.19050231681932944 0.1283048117867198
v 0.8778860414612983 0.2327691727109375 0.2193673270381739
vt 0.59375 0.5
vt 0.75 0.5
vt 0.59375 0.625
vt 0.75 0.625
vt 0.59375 0.5
vt 0.75 0.5
vt 0.59375 0.625
vt 0.75 0.625
vt 0.125 0.125
vt 0.375 0.125
vt 0.125 0.375
vt 0.375 0.375
vt 0.125 0.125
vt 0.375 0.125
vt 0.125 0.375
vt 0.375 0.375
vt 0.59375 0.5
vt 0.75 0.5
vt 0.59375 0.625
vt 0.75 0.625
vt 0.59375 0.5
vt 0.75 0.5
vt 0.59375 0.625
vt 0.75 0.625
vn 0.2667048372535353 -0.40576183701970364 -0.8742001266323179
vn 0.2667048372535353 -0.40576183701970364 -0.8742001266323179
vn 0.2667048372535353 -0.40576183701970364 -0.8742001266323179
vn 0.2667048372535353 -0.40576183701970364 -0.8742001266323179
vn -0.2667048372535353 0.40576183701970364 0.8742001266323179
vn -0.2667048372535353 0.40576183701970364 0.8742001266323179
vn -0.2667048372535353 0.40576183701970364 0.8742001266323179
vn -0.2667048372535353 0.40576183701970364 0.8742001266323179
vn 0.7987652909991514 0.6006187387682962 -0.03508761227873085
vn 0.7987652909991514 0.6006187387682962 -0.03508761227873085
vn 0.7987652909991514 0.6006187387682962 -0.03508761227873085
vn 0.7987652909991514 0.6006187387682962 -0.03508761227873085
vn -0.7987652909991514 -0.6006187387682962 0.03508761227873085
vn -0.7987652909991514 -0.6006187387682962 0.03508761227873085
vn -0.7987652909991514 -0.6006187387682962 0.03508761227873085
vn -0.7987652909991514 -0.6006187387682962 0.03508761227873085
vn 0.5392981967587328 -0.6889226980278977 0.48429636702616413
vn 0.5392981967587328 -0.6889226980278977 0.48429636702616413
vn 0.5392981967587328 -0.6889226980278977 0.48429636702616413
vn 0.5392981967587328 -0.6889226980278977 0.48429636702616413
vn -0.5392981967587328 0.6889226980278977 -0.48429636702616413
vn -0.5392981967587328 0.6889226980278977 -0.48429636702616413
vn -0.5392981967587328 0.6889226980278977 -0.48429636702616413
vn -0.5392981967587328 0.6889226980278977 -0.48429636702616413
f 25/25/25 27/27/27 26/26/26
f 27/27/27 28/28/28 26/26/26
f 29/29/29 31/31/31 30/30/30
f 31/31/31 32/32/32 30/30/30
f 33/33/33 35/35/35 34/34/34
f 35/35/35 36/36/36 34/34/34
f 37/37/37 39/39/39 38/38/38
f 39/39/39 40/40/40 38/38/38
f 41/41/41 43/43/43 42/42/42
f 43/43/43 44/44/44 42/42/42
f 45/45/45 47/47/47 46/46/46
f 47/47/47 48/48/48 46/46/46
o Object_9
usemtl material_0
v 0.9436992035600198 0.14530798569578907 0.22046291994537004
v 0.9316521648968432 0.15782204608069333 0.16042528724798316
v 0.31134333318682 -0.33018185654077503 0.24824061253100468
v 0.2992962945236434 -0.31766779615587076 0.1882029798336178
v 0.8960315272276014 0.206200723589124 0.17765676057086124
v 0.908078565890778 0.19368666320421973 0.23769439326824815
v 0.26367565685440153 -0.2692891186474401 0.2054344531564959
v 0.2757226955175781 -0.28180317903234436 0.2654720858538828
v 0.8960315272276014 0.206200723589124 0.17765676057086124
v 0.9316521648968432 0.15782204608069333 0.16042528724798316
v 0.908078565890778 0.19368666320421973 0.23769439326824815
v 0.9436992035600198 0.14530798569578907 0.22046291994537004
v 0.2757226955175781 -0.28180317903234436 0.2654720858538828
v 0.31134333318682 -0.33018185654077503 0.24824061253100468
v 0.26367565685440153 -0.2692891186474401 0.2054344531564959
v 0.2992962945236434 -0.31766779615587076 0.1882029798336178
v 0.908078565890778 0.19368666320421973 0.23769439326824815
v 0.9436992035600198 0.14530798569578907 0.22046291994537004
v 0.2757226955175781 -0.28180317903234436 0.2654720858538828
v 0.31134333318682 -0.33018185654077503 0.24824061253100468
v 0.9316521648968432 0.15782204608069333 0.16042528724798316
v 0.8960315272276014 0.206200723589124 0.17765676057086124
v 0.2992962945236434 -0.31766779615587076 0.1882029798336178
v 0.26367565685440153 -0.2692891186474401 0.2054344531564959
vt 0.5 0.5
vt 0.59375 0.5
vt 0.5 1
vt 0.59375 1
vt 0.5 0.5
vt 0.59375 0.5
vt 0.5 1
vt 0.59375 1
vt 0.78125 0.5
vt 0.890625 0.5
vt 0.78125 0.609375
vt 0.890625 0.609375
vt 0.78125 0.5
vt 0.890625 0.5
vt 0.78125 0.609375
vt 0.890625 0.609375
vt 0.5 0.5
vt 0.59375 0.5
vt 0.5 1
vt 0.59375 1
vt 0.5 0.5
vt 0.59375 0.5
vt 0.5 1
vt 0.59375 1
vn 0.5699302032577098 -0.774058847036113 -0.2757035812965598
vn 0.5699302032577098 -0.774058847036113 -0.2757035812965598
vn 0.5699302032577098 -0.774058847036113 -0.2757035812965598
vn 0.5699302032577098 -0.774058847036113 -0.2757035812965598
vn -0.5699302032577098 0.774058847036113 0.2757035812965598
vn -0.5699302032577098 0.774058847036113 0.2757035812965598
vn -0.5699302032577098 0.774058847036113 0.2757035812965598
vn -0.5699302032577098 0.774058847036113 0.2757035812965598
vn 0.7987652909991512 0.6006187387682961 -0.03508761227873084
vn 0.7987652909991512 0.6006187387682961 -0.03508761227873084
vn 0.7987652909991512 0.6006187387682961 -0.03508761227873084
vn 0.7987652909991512 0.6006187387682961 -0.03508761227873084
vn -0.7987652909991512 -0.6006187387682961 0.03508761227873084
vn -0.7987652909991512 -0.6006187387682961 0.03508761227873084
vn -0.7987652909991512 -0.6006187387682961 0.03508761227873084
vn -0.7987652909991512 -0.6006187387682961 0.03508761227873084
vn 0.1927526084942721 -0.20022495786600647 0.9606021018955819
vn 0.1927526084942721 -0.20022495786600647 0.9606021018955819
vn 0.1927526084942721 -0.20022495786600647 0.9606021018955819
vn 0.1927526084942721 -0.20022495786600647 0.9606021018955819
vn -0.1927526084942721 0.20022495786600647 -0.9606021018955819
vn -0.1927526084942721 0.20022495786600647 -0.9606021018955819
vn -0.1927526084942721 0.20022495786600647 -0.9606021018955819
vn -0.1927526084942721 0.20022495786600647 -0.9606021018955819
f 49/49/49 51/51/51 50/50/50
f 51/51/51 52/52/52 50/50/50
f 53/53/53 55/55/55 54/54/54
f 55/55/55 56/56/56 54/54/54
f 57/57/57 59/59/59 58/58/58
f 59/59/59 60/60/60 58/58/58
f 61/61/61 63/63/63 62/62/62
f 63/63/63 64/64/64 62/62/62
f 65/65/65 67/67/67 66/66/66
f 67/67/67 68/68/68 66/66/66
f 69/69/69 71/71/71 70/70/70
f 71/71/71 72/72/72 70/70/70
o Object_11
usemtl material_0
v 1.0209173140634706 -0.031718844347028 0.13553786638222576
v 0.8411512482100189 0.1979220524381043 -0.025894267030054485
v 0.7546622107484392 -0.2319250937097918 0.14723373694459824
v 0.5748961448949874 -0.0022841969246595456 -0.014198396467682006
v 0.7522496408953926 0.33317599129125003 0.26550578177459866
v 0.9320157067488444 0.10353509450611777 0.4269379151868789
v 0.4859945375803611 0.13296974192848626 0.27720165233697114
v 0.6657606034338129 -0.09667115485664603 0.4386337857492514
v 0.7522496408953926 0.33317599129125003 0.26550578177459866
v 0.8411512482100189 0.1979220524381043 -0.025894267030054485
v 0.9320157067488444 0.10353509450611777 0.4269379151868789
v 1.0209173140634706 -0.031718844347028 0.13553786638222576
v 0.6657606034338129 -0.09667115485664603 0.4386337857492514
v 0.7546622107484392 -0.2319250937097918 0.14723373694459824
v 0.4859945375803611 0.13296974192848626 0.27720165233697114
v 0.5748961448949874 -0.0022841969246595456 -0.014198396467682006
v 0.9320157067488444 0.10353509450611777 0.4269379151868789
v 1.0209173140634706 -0.031718844347028 0.13553786638222576
v 0.6657606034338129 -0.09667115485664603 0.4386337857492514
v 0.7546622107484392 -0.2319250937097918 0.14723373694459824
v 0.8411512482100189 0.1979220524381043 -0.025894267030054485
v 0.7522496408953926 0.33317599129125003 0.26550578177459866
v 0.5748961448949874 -0.0022841969246595456 -0.014198396467682006
v 0.4859945375803611 0.13296974192848626 0.27720165233697114
vt 0 0.5
vt 0.5 0.5
vt 0 1
vt 0.5 1
vt 0 0.5
vt 0.5 0.5
vt 0 1
vt 0.5 1
vt 0.5 0
vt 0.5 0.5
vt 0 0
vt 0 0.5
vt 0.5 0
vt 1 0
vt 0.5 0.5
vt 1 0.5
vt 0 0.5
vt 0.5 0.5
vt 0 1
vt 0.5 1
vt 0 0.5
vt 0.5 0.5
vt 0 1
vt 0.5 1
vn 0.2667048372535353 -0.40576183701970364 -0.8742001266323179
vn 0.2667048372535353 -0.40576183701970364 -0.8742001266323179
vn 0.2667048372535353 -0.40576183701970364 -0.8742001266323179
vn 0.2667048372535353 -0.40576183701970364 -0.8742001266323179
vn -0.2667048372535353 0.40576183701970364 0.8742001266323179
vn -0.2667048372535353 0.40576183701970364 0.8742001266323179
vn -0.2667048372535353 0.40576183701970364 0.8742001266323179
vn -0.2667048372535353 0.40576183701970364 0.8742001266323179
vn 0.7987652909991514 0.6006187387682962 -0.03508761227873085
vn 0.7987652909991514 0.6006187387682962 -0.03508761227873085
vn 0.7987652909991514 0.6006187387682962 -0.03508761227873085
vn 0.7987652909991514 0.6006187387682962 -0.03508761227873085
vn -0.7987652909991514 -0.6006187387682962 0.03508761227873085
vn -0.7987652909991514 -0.6006187387682962 0.03508761227873085
vn -0.7987652909991514 -0.6006187387682962 0.03508761227873085
vn -0.7987652909991514 -0.6006187387682962 0.03508761227873085
vn 0.5392981967587328 -0.6889226980278977 0.48429636702616413
vn 0.5392981967587328 -0.6889226980278977 0.48429636702616413
vn 0.5392981967587328 -0.6889226980278977 0.48429636702616413
vn 0.5392981967587328 -0.6889226980278977 0.48429636702616413
vn -0.5392981967587328 0.6889226980278977 -0.48429636702616413
vn -0.5392981967587328 0.6889226980278977 -0.48429636702616413
vn -0.5392981967587328 0.6889226980278977 -0.48429636702616413
vn -0.5392981967587328 0.6889226980278977 -0.48429636702616413
f 73/73/73 75/75/75 74/74/74
f 75/75/75 76/76/76 74/74/74
f 77/77/77 79/79/79 78/78/78
f 79/79/79 80/80/80 78/78/78
f 81/81/81 83/83/83 82/82/82
f 83/83/83 84/84/84 82/82/82
f 85/85/85 87/87/87 86/86/86
f 87/87/87 88/88/88 86/86/86
f 89/89/89 91/91/91 90/90/90
f 91/91/91 92/92/92 90/90/90
f 93/93/93 95/95/95 94/94/94
f 95/95/95 96/96/96 94/94/94
o Object_13
usemtl material_0
v 0.47262147497057083 0.13708694818393385 0.28074324386973504
v 0.6613758355447813 -0.1040359824903238 0.45024697625494525
v 0.7521893267065866 0.3473035049432164 0.26846258007552337
v 0.940943687280797 0.10618057426895876 0.43796631246073364
v 0.75472251898598 -0.24605261183671645 0.14427693890509657
v 0.5659681584117695 -0.004929681162458843 -0.02522679348011364
v 1.0342903707219957 -0.03583605507743398 0.13199627511088496
v 0.8455360101477852 0.20528687559682368 -0.037507457274325307
v 0.75472251898598 -0.24605261183671645 0.14427693890509657
v 0.6613758355447813 -0.1040359824903238 0.45024697625494525
v 0.5659681584117695 -0.004929681162458843 -0.02522679348011364
v 0.47262147497057083 0.13708694818393385 0.28074324386973504
v 0.8455360101477852 0.20528687559682368 -0.037507457274325307
v 0.7521893267065866 0.3473035049432164 0.26846258007552337
v 1.0342903707219957 -0.03583605507743398 0.13199627511088496
v 0.940943687280797 0.10618057426895876 0.43796631246073364
v 0.5659681584117695 -0.004929681162458843 -0.02522679348011364
v 0.47262147497057083 0.13708694818393385 0.28074324386973504
v 0.8455360101477852 0.20528687559682368 -0.037507457274325307
v 0.7521893267065866 0.3473035049432164 0.26846258007552337
v 0.6613758355447813 -0.1040359824903238 0.45024697625494525
v 0.75472251898598 -0.24605261183671645 0.14427693890509657
v 0.940943687280797 0.10618057426895876 0.43796631246073364
v 1.0342903707219957 -0.03583605507743398 0.13199627511088496
vt 0.890625 0.609375
vt 0.78125 0.609375
vt 0.890625 0.5
vt 0.78125 0.5
vt 0.890625 0.609375
vt 0.78125 0.609375
vt 0.890625 0.5
vt 0.78125 0.5
vt 0.890625 0.609375
vt 0.78125 0.609375
vt 0.890625 0.5
vt 0.78125 0.5
vt 0.890625 0.609375
vt 0.78125 0.609375
vt 0.890625 0.5
vt 0.78125 0.5
vt 0.890625 0.609375
vt 0.78125 0.609375
vt 0.890625 0.5
vt 0.78125 0.5
vt 0.890625 0.609375
vt 0.78125 0.609375
vt 0.890625 0.5
vt 0.78125 0.5
vn 0.2667048372535353 -0.40576183701970364 -0.8742001266323179
vn 0.2667048372535353 -0.40576183701970364 -0.8742001266323179
vn 0.2667048372535353 -0.40576183701970364 -0.8742001266323179
vn 0.2667048372535353 -0.40576183701970364 -0.8742001266323179
vn -0.2667048372535353 0.40576183701970364 0.8742001266323179
vn -0.2667048372535353 0.40576183701970364 0.8742001266323179
vn -0.2667048372535353 0.40576183701970364 0.8742001266323179
vn -0.2667048372535353 0.40576183701970364 0.8742001266323179
vn 0.7987652909991514 0.6006187387682962 -0.03508761227873085
vn 0.7987652909991514 0.6006187387682962 -0.03508761227873085
vn 0.7987652909991514 0.6006187387682962 -0.03508761227873085
vn 0.7987652909991514 0.6006187387682962 -0.03508761227873085
vn -0.7987652909991514 -0.6006187387682962 0.03508761227873085
vn -0.7987652909991514 -0.6006187387682962 0.03508761227873085
vn -0.7987652909991514 -0.6006187387682962 0.03508761227873085
vn -0.7987652909991514 -0.6006187387682962 0.03508761227873085
vn 0.5392981967587328 -0.6889226980278977 0.48429636702616413
vn 0.5392981967587328 -0.6889226980278977 0.48429636702616413
vn 0.5392981967587328 -0.6889226980278977 0.48429636702616413
vn 0.5392981967587328 -0.6889226980278977 0.48429636702616413
vn -0.5392981967587328 0.6889226980278977 -0.48429636702616413
vn -0.5392981967587328 0.6889226980278977 -0.48429636702616413
vn -0.5392981967587328 0.6889226980278977 -0.48429636702616413
vn -0.5392981967587328 0.6889226980278977 -0.48429636702616413
f 97/97/97 99/99/99 98/98/98
f 99/99/99 100/100/100 98/98/98
f 101/101/101 103/103/103 102/102/102
f 103/103/103 104/104/104 102/102/102
f 105/105/105 107/107/107 106/106/106
f 107/107/107 108/108/108 106/106/106
f 109/109/109 111/111/111 110/110/110
f 111/111/111 112/112/112 110/110/110
f 113/113/113 115/115/115 114/114/114
f 115/115/115 116/116/116 114/114/114
f 117/117/117 119/119/119 118/118/118
f 119/119/119 120/120/120 118/118/118
o Object_15
usemtl material_0
v 0.25066358901835895 -0.26617524326722625 0.20001936202957316
v 0.2659231717020305 -0.28202638681303377 0.2760670319916538
v 0.8963322400485636 0.21932493060521446 0.17165687479605768
v 0.911591822732235 0.20347378705940689 0.24770454475813833
v 0.31104264719772684 -0.3433060465042661 0.2542404985767934
v 0.29578306451405534 -0.3274549029584586 0.17819282861471272
v 0.9567112982279313 0.1421941273681746 0.2258780113432779
v 0.9414517155442599 0.15804527091398218 0.14983034138119727
v 0.31104264719772684 -0.3433060465042661 0.2542404985767934
v 0.2659231717020305 -0.28202638681303377 0.2760670319916538
v 0.29578306451405534 -0.3274549029584586 0.17819282861471272
v 0.25066358901835895 -0.26617524326722625 0.20001936202957316
v 0.9414517155442599 0.15804527091398218 0.14983034138119727
v 0.8963322400485636 0.21932493060521446 0.17165687479605768
v 0.9567112982279313 0.1421941273681746 0.2258780113432779
v 0.911591822732235 0.20347378705940689 0.24770454475813833
v 0.29578306451405534 -0.3274549029584586 0.17819282861471272
v 0.25066358901835895 -0.26617524326722625 0.20001936202957316
v 0.9414517155442599 0.15804527091398218 0.14983034138119727
v 0.8963322400485636 0.21932493060521446 0.17165687479605768
v 0.2659231717020305 -0.28202638681303377 0.2760670319916538
v 0.31104264719772684 -0.3433060465042661 0.2542404985767934
v 0.911591822732235 0.20347378705940689 0.24770454475813833
v 0.9567112982279313 0.1421941273681746 0.2258780113432779
vt 1 0.609375
vt 0.890625 0.609375
vt 1 0.5
vt 0.890625 0.5
vt 1 0.609375
vt 0.890625 0.609375
vt 1 0.5
vt 0.890625 0.5
vt 1 0.609375
vt 0.890625 0.609375
vt 1 0.5
vt 0.890625 0.5
vt 1 0.609375
vt 0.890625 0.609375
vt 1 0.5
vt 0.890625 0.5
vt 1 0.609375
vt 0.890625 0.609375
vt 1 0.5
vt 0.890625 0.5
vt 1 0.609375
vt 0.890625 0.609375
vt 1 0.5
vt 0.890625 0.5
vn 0.5699302032577098 -0.774058847036113 -0.2757035812965598
vn 0.5699302032577098 -0.774058847036113 -0.2757035812965598
vn 0.5699302032577098 -0.774058847036113 -0.2757035812965598
vn 0.5699302032577098 -0.774058847036113 -0.2757035812965598
vn -0.5699302032577098 0.774058847036113 0.2757035812965598
vn -0.5699302032577098 0.774058847036113 0.2757035812965598
vn -0.5699302032577098 0.774058847036113 0.2757035812965598
vn -0.5699302032577098 0.774058847036113 0.2757035812965598
vn 0.7987652909991512 0.6006187387682961 -0.03508761227873084
vn 0.7987652909991512 0.6006187387682961 -0.03508761227873084
vn 0.7987652909991512 0.6006187387682961 -0.03508761227873084
vn 0.7987652909991512 0.6006187387682961 -0.03508761227873084
vn -0.7987652909991512 -0.6006187387682961 0.03508761227873084
vn -0.7987652909991512 -0.6006187387682961 0.03508761227873084
vn -0.7987652909991512 -0.6006187387682961 0.03508761227873084
vn -0.7987652909991512 -0.6006187387682961 0.03508761227873084
vn 0.1927526084942721 -0.20022495786600647 0.9606021018955819
vn 0.1927526084942721 -0.20022495786600647 0.9606021018955819
vn 0.1927526084942721 -0.20022495786600647 0.9606021018955819
vn 0.1927526084942721 -0.20022495786600647 0.9606021018955819
vn -0.1927526084942721 0.20022495786600647 -0.9606021018955819
vn -0.1927526084942721 0.20022495786600647 -0.9606021018955819
vn -0.1927526084942721 0.20022495786600647 -0.9606021018955819
vn -0.1927526084942721 0.20022495786600647 -0.9606021018955819
f 121/121/121 123/123/123 122/122/122
f 123/123/123 124/124/124 122/122/122
f 125/125/125 127/127/127 126/126/126
f 127/127/127 128/128/128 126/126/126
f 129/129/129 131/131/131 130/130/130
f 131/131/131 132/132/132 130/130/130
f 133/133/133 135/135/135 134/134/134
f 135/135/135 136/136/136 134/134/134
f 137/137/137 139/139/139 138/138/138
f 139/139/139 140/140/140 138/138/138
f 141/141/141 143/143/143 142/142/142
f 143/143/143 144/144/144 142/142/142
o Object_17
usemtl material_0
v 0.8645129688608324 0.2368863883494458 0.2229089225314245
v 0.9296781698756872 0.15364156052730255 0.2814280728177971
v 0.94438950302935 0.29694826554491943 0.21940016122328712
v 1.0095547040442048 0.21370343772277617 0.27791931150965965
v 0.961905003587029 0.1046120060806846 0.17579555165235103
v 0.8967398025721742 0.18785683390282787 0.11727640136597847
v 1.0417815377555466 0.16467388327615823 0.17228679034421365
v 0.9766163367406918 0.2479187110983015 0.11376764005784107
v 0.961905003587029 0.1046120060806846 0.17579555165235103
v 0.9296781698756872 0.15364156052730255 0.2814280728177971
v 0.8967398025721742 0.18785683390282787 0.11727640136597847
v 0.8645129688608324 0.2368863883494458 0.2229089225314245
v 0.9766163367406918 0.2479187110983015 0.11376764005784107
v 0.94438950302935 0.29694826554491943 0.21940016122328712
v 1.0417815377555466 0.16467388327615823 0.17228679034421365
v 1.0095547040442048 0.21370343772277617 0.27791931150965965
v 0.8967398025721742 0.18785683390282787 0.11727640136597847
v 0.8645129688608324 0.2368863883494458 0.2229089225314245
v 0.9766163367406918 0.2479187110983015 0.11376764005784107
v 0.94438950302935 0.29694826554491943 0.21940016122328712
v 0.9296781698756872 0.15364156052730255 0.2814280728177971
v 0.961905003587029 0.1046120060806846 0.17579555165235103
v 1.0095547040442048 0.21370343772277617 0.27791931150965965
v 1.0417815377555466 0.16467388327615823 0.17228679034421365
vt 0.890625 0.609375
vt 0.78125 0.609375
vt 0.890625 0.5
vt 0.78125 0.5
vt 0.890625 0.609375
vt 0.78125 0.609375
vt 0.890625 0.5
vt 0.78125 0.5
vt 0.890625 0.609375
vt 0.78125 0.609375
vt 0.890625 0.5
vt 0.78125 0.5
vt 0.890625 0.609375
vt 0.78125 0.609375
vt 0.890625 0.5
vt 0.78125 0.5
vt 0.890625 0.609375
vt 0.78125 0.609375
vt 0.890625 0.5
vt 0.78125 0.5
vt 0.890625 0.609375
vt 0.78125 0.609375
vt 0.890625 0.5
vt 0.78125 0.5
vn 0.2667048372535353 -0.40576183701970364 -0.8742001266323179
vn 0.2667048372535353 -0.40576183701970364 -0.8742001266323179
vn 0.2667048372535353 -0.40576183701970364 -0.8742001266323179
vn 0.2667048372535353 -0.40576183701970364 -0.8742001266323179
vn -0.2667048372535353 0.40576183701970364 0.8742001266323179
vn -0.2667048372535353 0.40576183701970364 0.8742001266323179
vn -0.2667048372535353 0.40576183701970364 0.8742001266323179
vn -0.2667048372535353 0.40576183701970364 0.8742001266323179
vn 0.7987652909991514 0.6006187387682962 -0.03508761227873085
vn 0.7987652909991514 0.6006187387682962 -0.03508761227873085
vn 0.7987652909991514 0.6006187387682962 -0.03508761227873085
vn 0.7987652909991514 0.6006187387682962 -0.03508761227873085
vn -0.7987652909991514 -0.6006187387682962 0.03508761227873085
vn -0.7987652909991514 -0.6006187387682962 0.03508761227873085
vn -0.7987652909991514 -0.6006187387682962 0.03508761227873085
vn -0.7987652909991514 -0.6006187387682962 0.03508761227873085
vn 0.5392981967587328 -0.6889226980278977 0.48429636702616413
vn 0.5392981967587328 -0.6889226980278977 0.48429636702616413
vn 0.5392981967587328 -0.6889226980278977 0.48429636702616413
vn 0.5392981967587328 -0.6889226980278977 0.48429636702616413
vn -0.5392981967587328 0.6889226980278977 -0.48429636702616413
vn -0.5392981967587328 0.6889226980278977 -0.48429636702616413
vn -0.5392981967587328 0.6889226980278977 -0.48429636702616413
vn -0.5392981967587328 0.6889226980278977 -0.48429636702616413
f 145/145/145 147/147/147 146/146/146
f 147/147/147 148/148/148 146/146/146
f 149/149/149 151/151/151 150/150/150
f 151/151/151 152/152/152 150/150/150
f 153/153/153 155/155/155 154/154/154
f 155/155/155 156/156/156 154/154/154
f 157/157/157 159/159/159 158/158/158
f 159/159/159 160/160/160 158/158/158
f 161/161/161 163/163/163 162/162/162
f 163/163/163 164/164/164 162/162/162
f 165/165/165 167/167/167 166/166/166
f 167/167/167 168/168/168 166/166/166
o Object_19
usemtl material_0
v 0.16559332265887472 -0.28865501622780926 0.2536105827576523
v 0.2307585236737295 -0.3718998440499525 0.31212973304402486
v 0.24546985682739234 -0.22859313903233563 0.25010182144951487
v 0.31063505784224715 -0.3118379668544789 0.30862097173588743
v 0.2629853573850713 -0.42092939849657046 0.2064972118785788
v 0.1978201563702165 -0.3376845706744272 0.14797806159220625
v 0.3428618915535889 -0.36086752130109684 0.20298845057044143
v 0.27769669053873414 -0.2776226934789536 0.14446930028406885
v 0.2629853573850713 -0.42092939849657046 0.2064972118785788
v 0.2307585236737295 -0.3718998440499525 0.31212973304402486
v 0.1978201563702165 -0.3376845706744272 0.14797806159220625
v 0.16559332265887472 -0.28865501622780926 0.2536105827576523
v 0.27769669053873414 -0.2776226934789536 0.14446930028406885
v 0.24546985682739234 -0.22859313903233563 0.25010182144951487
v 0.3428618915535889 -0.36086752130109684 0.20298845057044143
v 0.31063505784224715 -0.3118379668544789 0.30862097173588743
v 0.1978201563702165 -0.3376845706744272 0.14797806159220625
v 0.16559332265887472 -0.28865501622780926 0.2536105827576523
v 0.27769669053873414 -0.2776226934789536 0.14446930028406885
v 0.24546985682739234 -0.22859313903233563 0.25010182144951487
v 0.2307585236737295 -0.3718998440499525 0.31212973304402486
v 0.2629853573850713 -0.42092939849657046 0.2064972118785788
v 0.31063505784224715 -0.3118379668544789 0.30862097173588743
v 0.3428618915535889 -0.36086752130109684 0.20298845057044143
vt 0.890625 0.609375
vt 0.78125 0.609375
vt 0.890625 0.5
vt 0.78125 0.5
vt 0.890625 0.609375
vt 0.78125 0.609375
vt 0.890625 0.5
vt 0.78125 0.5
vt 0.890625 0.609375
vt 0.78125 0.609375
vt 0.890625 0.5
vt 0.78125 0.5
vt 0.890625 0.609375
vt 0.78125 0.609375
vt 0.890625 0.5
vt 0.78125 0.5
vt 0.890625 0.609375
vt 0.78125 0.609375
vt 0.890625 0.5
vt 0.78125 0.5
vt 0.890625 0.609375
vt 0.78125 0.609375
vt 0.890625 0.5
vt 0.78125 0.5
vn 0.2667048372535353 -0.40576183701970364 -0.8742001266323179
vn 0.2667048372535353 -0.40576183701970364 -0.8742001266323179
vn 0.2667048372535353 -0.40576183701970364 -0.8742001266323179
vn 0.2667048372535353 -0.40576183701970364 -0.8742001266323179
vn -0.2667048372535353 0.40576183701970364 0.8742001266323179
vn -0.2667048372535353 0.40576183701970364 0.8742001266323179
vn -0.2667048372535353 0.40576183701970364 0.8742001266323179
vn -0.2667048372535353 0.40576183701970364 0.8742001266323179
vn 0.7987652909991514 0.6006187387682962 -0.03508761227873085
vn 0.7987652909991514 0.6006187387682962 -0.03508761227873085
vn 0.7987652909991514 0.6006187387682962 -0.03508761227873085
vn 0.7987652909991514 0.6006187387682962 -0.03508761227873085
vn -0.7987652909991514 -0.6006187387682962 0.03508761227873085
vn -0.7987652909991514 -0.6006187387682962 0.03508761227873085
vn -0.7987652909991514 -0.6006187387682962 0.03508761227873085
vn -0.7987652909991514 -0.6006187387682962 0.03508761227873085
vn 0.5392981967587328 -0.6889226980278977 0.48429636702616413
vn 0.5392981967587328 -0.6889226980278977 0.48429636702616413
vn 0.5392981967587328 -0.6889226980278977 0.48429636702616413
vn 0.5392981967587328 -0.6889226980278977 0.48429636702616413
vn -0.5392981967587328 0.6889226980278977 -0.48429636702616413
vn -0.5392981967587328 0.6889226980278977 -0.48429636702616413
vn -0.5392981967587328 0.6889226980278977 -0.48429636702616413
vn -0.5392981967587328 0.6889226980278977 -0.48429636702616413
f 169/169/169 171/171/171 170/170/170
f 171/171/171 172/172/172 170/170/170
f 173/173/173 175/175/175 174/174/174
f 175/175/175 176/176/176 174/174/174
f 177/177/177 179/179/179 178/178/178
f 179/179/179 180/180/180 178/178/178
f 181/181/181 183/183/183 182/182/182
f 183/183/183 184/184/184 182/182/182
f 185/185/185 187/187/187 186/186/186
f 187/187/187 188/188/188 186/186/186
f 189/189/189 191/191/191 190/190/190
f 191/191/191 192/192/192 190/190/190
