# Blender 5.2.2 LTS
# www.blender.org
mtllib wither2point5x.mtl
o Object_12
v 0.112070 0.983857 -0.908075
v 0.017707 0.983857 0.721435
v 0.323108 0.983857 0.680873
v -0.193331 0.983857 -0.867513
v 0.323108 0.779032 0.680873
v -0.193331 0.779032 -0.867513
v 0.112070 0.779032 -0.908075
v 0.017707 0.779032 0.721435
v 0.112070 0.779032 -0.908075
v -0.193331 0.983857 -0.867513
v 0.112070 0.983857 -0.908075
v -0.193331 0.779032 -0.867513
v 0.323108 0.983857 0.680873
v 0.017707 0.779032 0.721435
v 0.323108 0.779032 0.680873
v 0.323108 0.983857 0.680873
v 0.017707 0.983857 0.721435
v 0.017707 0.779032 0.721435
v 0.323108 0.983857 0.680873
v 0.112070 0.779032 -0.908075
v 0.112070 0.983857 -0.908075
v 0.323108 0.983857 0.680873
v 0.323108 0.779032 0.680873
v 0.112070 0.779032 -0.908075
v 0.017707 0.779032 0.721435
v -0.193331 0.983857 -0.867513
v -0.193331 0.779032 -0.867513
v 0.017707 0.983857 0.721435
v -0.007475 0.255488 -0.056874
v 0.144792 0.255488 0.404079
v 0.016914 0.255488 0.399704
v 0.120404 0.255488 -0.052500
v 0.016914 0.410678 0.399704
v 0.120404 0.410678 -0.052500
v -0.007475 0.410678 -0.056874
v 0.144792 0.410678 0.404079
v -0.007475 0.410678 -0.056874
v 0.120404 0.255488 -0.052500
v -0.007475 0.255488 -0.056874
v 0.120404 0.410678 -0.052500
v 0.016914 0.255488 0.399704
v 0.144792 0.410678 0.404079
v 0.016914 0.410678 0.399704
v 0.016914 0.255488 0.399704
v 0.144792 0.255488 0.404079
v 0.144792 0.410678 0.404079
v 0.016914 0.255488 0.399704
v -0.007475 0.410678 -0.056874
v -0.007475 0.255488 -0.056874
v 0.016914 0.255488 0.399704
v 0.016914 0.410678 0.399704
v -0.007475 0.410678 -0.056874
v 0.144792 0.410678 0.404079
v 0.120404 0.255488 -0.052500
v 0.120404 0.410678 -0.052500
v 0.144792 0.255488 0.404079
v -0.007203 0.437192 -0.051791
v 0.145064 0.437191 0.409162
v 0.017185 0.437191 0.404787
v 0.120676 0.437192 -0.047417
v 0.017185 0.592382 0.404787
v 0.120676 0.592382 -0.047417
v -0.007203 0.592382 -0.051791
v 0.145064 0.592382 0.409162
v -0.007203 0.592382 -0.051791
v 0.120676 0.437192 -0.047417
v -0.007203 0.437192 -0.051791
v 0.120676 0.592382 -0.047417
v 0.017185 0.437191 0.404787
v 0.145064 0.592382 0.409162
v 0.017185 0.592382 0.404787
v 0.017185 0.437191 0.404787
v 0.145064 0.437191 0.409162
v 0.145064 0.592382 0.409162
v 0.017185 0.437191 0.404787
v -0.007203 0.592382 -0.051791
v -0.007203 0.437192 -0.051791
v 0.017185 0.437191 0.404787
v 0.017185 0.592382 0.404787
v -0.007203 0.592382 -0.051791
v 0.145064 0.592382 0.409162
v 0.120676 0.437192 -0.047417
v 0.120676 0.592382 -0.047417
v 0.145064 0.437191 0.409162
v -0.006799 0.626328 -0.044221
v 0.145468 0.626328 0.416732
v 0.017590 0.626328 0.412358
v 0.121080 0.626328 -0.039846
v 0.017590 0.781519 0.412358
v 0.121080 0.781519 -0.039846
v -0.006799 0.781519 -0.044221
v 0.145468 0.781519 0.416732
v -0.006799 0.781519 -0.044221
v 0.121080 0.626328 -0.039846
v -0.006799 0.626328 -0.044221
v 0.121080 0.781519 -0.039846
v 0.017590 0.626328 0.412358
v 0.145468 0.781519 0.416732
v 0.017590 0.781519 0.412358
v 0.017590 0.626328 0.412358
v 0.145468 0.626328 0.416732
v 0.145468 0.781519 0.416732
v 0.017590 0.626328 0.412358
v -0.006799 0.781519 -0.044221
v -0.006799 0.626328 -0.044221
v 0.017590 0.626328 0.412358
v 0.017590 0.781519 0.412358
v -0.006799 0.781519 -0.044221
v 0.145468 0.781519 0.416732
v 0.121080 0.626328 -0.039846
v 0.121080 0.781519 -0.039846
v 0.145468 0.626328 0.416732
v -0.035588 0.434704 -0.583195
v 0.116679 0.434704 -0.122242
v -0.011200 0.434704 -0.126617
v 0.092291 0.434704 -0.578820
v -0.011200 0.589895 -0.126617
v 0.092291 0.589895 -0.578820
v -0.035588 0.589895 -0.583195
v 0.116679 0.589895 -0.122242
v -0.035588 0.589895 -0.583195
v 0.092291 0.434704 -0.578820
v -0.035588 0.434704 -0.583195
v 0.092291 0.589895 -0.578820
v -0.011200 0.434704 -0.126617
v 0.116679 0.589895 -0.122242
v -0.011200 0.589895 -0.126617
v -0.011200 0.434704 -0.126617
v 0.116679 0.434704 -0.122242
v 0.116679 0.589895 -0.122242
v -0.011200 0.434704 -0.126617
v -0.035588 0.589895 -0.583195
v -0.035588 0.434704 -0.583195
v -0.011200 0.434704 -0.126617
v -0.011200 0.589895 -0.126617
v -0.035588 0.589895 -0.583195
v 0.116679 0.589895 -0.122242
v 0.092291 0.434704 -0.578820
v 0.092291 0.589895 -0.578820
v 0.116679 0.434704 -0.122242
v -0.035859 0.253000 -0.588278
v 0.116408 0.253000 -0.127325
v -0.011471 0.253000 -0.131700
v 0.092019 0.253000 -0.583904
v -0.011471 0.408191 -0.131700
v 0.092019 0.408191 -0.583903
v -0.035859 0.408191 -0.588278
v 0.116408 0.408191 -0.127325
v -0.035859 0.408191 -0.588278
v 0.092019 0.253000 -0.583904
v -0.035859 0.253000 -0.588278
v 0.092019 0.408191 -0.583903
v -0.011471 0.253000 -0.131700
v 0.116408 0.408191 -0.127325
v -0.011471 0.408191 -0.131700
v -0.011471 0.253000 -0.131700
v 0.116408 0.253000 -0.127325
v 0.116408 0.408191 -0.127325
v -0.011471 0.253000 -0.131700
v -0.035859 0.408191 -0.588278
v -0.035859 0.253000 -0.588278
v -0.011471 0.253000 -0.131700
v -0.011471 0.408191 -0.131700
v -0.035859 0.408191 -0.588278
v 0.116408 0.408191 -0.127325
v 0.092019 0.253000 -0.583904
v 0.092019 0.408191 -0.583903
v 0.116408 0.253000 -0.127325
v -0.001378 0.048385 0.057264
v 0.201310 0.866775 0.064198
v -0.001378 0.866775 0.057264
v 0.201310 0.048385 0.064197
v -0.014593 0.866775 -0.190138
v 0.188095 0.048385 -0.183204
v -0.014593 0.048385 -0.190138
v 0.188095 0.866775 -0.183204
v -0.014593 0.048385 -0.190138
v 0.201310 0.048385 0.064197
v -0.001378 0.048385 0.057264
v 0.188095 0.048385 -0.183204
v -0.001378 0.866775 0.057264
v 0.188095 0.866775 -0.183204
v -0.014593 0.866775 -0.190138
v -0.001378 0.866775 0.057264
v 0.201310 0.866775 0.064198
v 0.188095 0.866775 -0.183204
v -0.001378 0.866775 0.057264
v -0.014593 0.048385 -0.190138
v -0.001378 0.048385 0.057264
v -0.001378 0.866775 0.057264
v -0.014593 0.866775 -0.190138
v -0.014593 0.048385 -0.190138
v 0.188095 0.866775 -0.183204
v 0.201310 0.048385 0.064197
v 0.188095 0.048385 -0.183204
v 0.201310 0.866775 0.064198
v -0.035183 0.623841 -0.575624
v 0.117084 0.623841 -0.114671
v -0.010795 0.623841 -0.119046
v 0.092695 0.623841 -0.571249
v -0.010795 0.779032 -0.119046
v 0.092695 0.779032 -0.571249
v -0.035183 0.779032 -0.575624
v 0.117084 0.779032 -0.114671
v -0.035183 0.779032 -0.575624
v 0.092695 0.623841 -0.571249
v -0.035183 0.623841 -0.575624
v 0.092695 0.779032 -0.571249
v -0.010795 0.623841 -0.119046
v 0.117084 0.779032 -0.114671
v -0.010795 0.779032 -0.119046
v -0.010795 0.623841 -0.119046
v 0.117084 0.623841 -0.114671
v 0.117084 0.779032 -0.114671
v -0.010795 0.623841 -0.119046
v -0.035183 0.779032 -0.575624
v -0.035183 0.623841 -0.575624
v -0.010795 0.623841 -0.119046
v -0.010795 0.779032 -0.119046
v -0.035183 0.779032 -0.575624
v 0.117084 0.779032 -0.114671
v 0.092695 0.623841 -0.571249
v 0.092695 0.779032 -0.571249
v 0.117084 0.623841 -0.114671
v -0.139994 1.411238 -0.337040
v -0.129526 0.894285 0.179807
v -0.129526 1.411238 0.179807
v -0.139994 0.894285 -0.337040
v 0.387321 1.411238 0.169339
v 0.376853 0.894285 -0.347508
v 0.376853 1.411238 -0.347508
v 0.387321 0.894285 0.169339
v 0.376853 1.411238 -0.347508
v -0.139994 0.894285 -0.337040
v -0.139994 1.411238 -0.337040
v 0.376853 0.894285 -0.347508
v -0.129526 1.411238 0.179807
v 0.387321 0.894285 0.169339
v 0.387321 1.411238 0.169339
v -0.129526 1.411238 0.179807
v -0.129526 0.894285 0.179807
v 0.387321 0.894285 0.169339
v -0.129526 1.411238 0.179807
v 0.376853 1.411238 -0.347508
v -0.139994 1.411238 -0.337040
v -0.129526 1.411238 0.179807
v 0.387321 1.411238 0.169339
v 0.376853 1.411238 -0.347508
v 0.387321 0.894285 0.169339
v -0.139994 0.894285 -0.337040
v 0.376853 0.894285 -0.347508
v -0.129526 0.894285 0.179807
v -0.126737 1.350564 0.317527
v -0.116269 0.833611 0.834374
v -0.116269 1.350564 0.834374
v -0.126737 0.833611 0.317527
v 0.400578 1.350564 0.823906
v 0.390110 0.833611 0.307059
v 0.390110 1.350564 0.307059
v 0.400578 0.833611 0.823906
v 0.390110 1.350564 0.307059
v -0.126737 0.833611 0.317527
v -0.126737 1.350564 0.317527
v 0.390110 0.833611 0.307059
v -0.116269 1.350564 0.834374
v 0.400578 0.833611 0.823906
v 0.400578 1.350564 0.823906
v -0.116269 1.350564 0.834374
v -0.116269 0.833611 0.834374
v 0.400578 0.833611 0.823906
v -0.116269 1.350564 0.834374
v 0.390110 1.350564 0.307059
v -0.126737 1.350564 0.317527
v -0.116269 1.350564 0.834374
v 0.400578 1.350564 0.823906
v 0.390110 1.350564 0.307059
v 0.400578 0.833611 0.823906
v -0.126737 0.833611 0.317527
v 0.390110 0.833611 0.307059
v -0.116269 0.833611 0.834374
v -0.153714 1.345503 -1.014447
v -0.143246 0.828549 -0.497600
v -0.143246 1.345503 -0.497600
v -0.153714 0.828549 -1.014447
v 0.373601 1.345503 -0.508068
v 0.363133 0.828550 -1.024915
v 0.363133 1.345503 -1.024915
v 0.373601 0.828550 -0.508068
v 0.363133 1.345503 -1.024915
v -0.153714 0.828549 -1.014447
v -0.153714 1.345503 -1.014447
v 0.363133 0.828550 -1.024915
v -0.143246 1.345503 -0.497600
v 0.373601 0.828550 -0.508068
v 0.373601 1.345503 -0.508068
v -0.143246 1.345503 -0.497600
v -0.143246 0.828549 -0.497600
v 0.373601 0.828550 -0.508068
v -0.143246 1.345503 -0.497600
v 0.363133 1.345503 -1.024915
v -0.153714 1.345503 -1.014447
v -0.143246 1.345503 -0.497600
v 0.373601 1.345503 -0.508068
v 0.363133 1.345503 -1.024915
v 0.373601 0.828550 -0.508068
v -0.153714 0.828549 -1.014447
v 0.363133 0.828550 -1.024915
v -0.143246 0.828549 -0.497600
vn -0.0000 1.0000 -0.0000
vn -0.0000 -1.0000 -0.0000
vn -0.1317 -0.0000 -0.9913
vn 0.1317 -0.0000 0.9913
vn 0.9913 -0.0000 -0.1317
vn -0.9913 -0.0000 0.1317
vn 0.0342 -0.0000 -0.9994
vn -0.0342 -0.0000 0.9994
vn -0.9986 -0.0000 0.0533
vn 0.9986 -0.0000 -0.0533
vn -0.9998 -0.0000 0.0202
vn 0.9998 -0.0000 -0.0202
vn -0.0202 -0.0000 -0.9998
vn 0.0202 -0.0000 0.9998
vt 0.254811 0.653616
vt 0.470014 0.860613
vt 0.000114 0.999853
vt 0.492690 0.634836
vt 0.629882 0.248018
vt 0.341395 0.005903
vt 0.723618 0.000165
vt 0.402116 0.383316
vt 0.222461 0.328739
vt 0.667834 0.473177
vt 0.863118 0.443680
vt 0.863545 0.978684
s 1
usemtl material_1
f 1/1/1 2/2/1 3/3/1
f 1/1/1 4/4/1 2/2/1
f 5/5/2 6/6/2 7/7/2
f 5/5/2 8/8/2 6/6/2
f 9/9/3 10/4/3 11/1/3
f 9/9/3 12/10/3 10/4/3
f 13/11/4 14/8/4 15/5/4
f 16/3/4 17/2/4 18/12/4
f 19/3/5 20/9/5 21/1/5
f 22/11/5 23/5/5 24/7/5
f 25/12/6 26/4/6 27/10/6
f 25/12/6 28/2/6 26/4/6
usemtl material_2
f 29/1/2 30/2/2 31/3/2
f 29/1/2 32/4/2 30/2/2
f 33/5/1 34/6/1 35/7/1
f 33/5/1 36/8/1 34/6/1
f 37/9/7 38/4/7 39/1/7
f 37/9/7 40/10/7 38/4/7
f 41/11/8 42/8/8 43/5/8
f 44/3/8 45/2/8 46/12/8
f 47/3/9 48/9/9 49/1/9
f 50/11/9 51/5/9 52/7/9
f 53/12/10 54/4/10 55/10/10
f 53/12/10 56/2/10 54/4/10
f 57/1/2 58/2/2 59/3/2
f 57/1/2 60/4/2 58/2/2
f 61/5/1 62/6/1 63/7/1
f 61/5/1 64/8/1 62/6/1
f 65/9/7 66/4/7 67/1/7
f 65/9/7 68/10/7 66/4/7
f 69/11/8 70/8/8 71/5/8
f 72/3/8 73/2/8 74/12/8
f 75/3/9 76/9/9 77/1/9
f 78/11/9 79/5/9 80/7/9
f 81/12/10 82/4/10 83/10/10
f 81/12/10 84/2/10 82/4/10
f 85/1/2 86/2/2 87/3/2
f 85/1/2 88/4/2 86/2/2
f 89/5/1 90/6/1 91/7/1
f 89/5/1 92/8/1 90/6/1
f 93/9/7 94/4/7 95/1/7
f 93/9/7 96/10/7 94/4/7
f 97/11/8 98/8/8 99/5/8
f 100/3/8 101/2/8 102/12/8
f 103/3/9 104/9/9 105/1/9
f 106/11/9 107/5/9 108/7/9
f 109/12/10 110/4/10 111/10/10
f 109/12/10 112/2/10 110/4/10
f 113/1/2 114/2/2 115/3/2
f 113/1/2 116/4/2 114/2/2
f 117/5/1 118/6/1 119/7/1
f 117/5/1 120/8/1 118/6/1
f 121/9/7 122/4/7 123/1/7
f 121/9/7 124/10/7 122/4/7
f 125/11/8 126/8/8 127/5/8
f 128/3/8 129/2/8 130/12/8
f 131/3/9 132/9/9 133/1/9
f 134/11/9 135/5/9 136/7/9
f 137/12/10 138/4/10 139/10/10
f 137/12/10 140/2/10 138/4/10
f 141/1/2 142/2/2 143/3/2
f 141/1/2 144/4/2 142/2/2
f 145/5/1 146/6/1 147/7/1
f 145/5/1 148/8/1 146/6/1
f 149/9/7 150/4/7 151/1/7
f 149/9/7 152/10/7 150/4/7
f 153/11/8 154/8/8 155/5/8
f 156/3/8 157/2/8 158/12/8
f 159/3/9 160/9/9 161/1/9
f 162/11/9 163/5/9 164/7/9
f 165/12/10 166/4/10 167/10/10
f 165/12/10 168/2/10 166/4/10
f 197/1/2 198/2/2 199/3/2
f 197/1/2 200/4/2 198/2/2
f 201/5/1 202/6/1 203/7/1
f 201/5/1 204/8/1 202/6/1
f 205/9/7 206/4/7 207/1/7
f 205/9/7 208/10/7 206/4/7
f 209/11/8 210/8/8 211/5/8
f 212/3/8 213/2/8 214/12/8
f 215/3/9 216/9/9 217/1/9
f 218/11/9 219/5/9 220/7/9
f 221/12/10 222/4/10 223/10/10
f 221/12/10 224/2/10 222/4/10
usemtl material_3
f 169/1/8 170/2/8 171/3/8
f 169/1/8 172/4/8 170/2/8
f 173/5/7 174/6/7 175/7/7
f 173/5/7 176/8/7 174/6/7
f 177/9/2 178/4/2 179/1/2
f 177/9/2 180/10/2 178/4/2
f 181/11/1 182/8/1 183/5/1
f 184/3/1 185/2/1 186/12/1
f 187/3/9 188/9/9 189/1/9
f 190/11/9 191/5/9 192/7/9
f 193/12/10 194/4/10 195/10/10
f 193/12/10 196/2/10 194/4/10
usemtl material_0
f 225/1/11 226/2/11 227/3/11
f 225/1/11 228/4/11 226/2/11
f 229/5/12 230/6/12 231/7/12
f 229/5/12 232/8/12 230/6/12
f 233/9/13 234/4/13 235/1/13
f 233/9/13 236/10/13 234/4/13
f 237/11/14 238/8/14 239/5/14
f 240/3/14 241/2/14 242/12/14
f 243/3/1 244/9/1 245/1/1
f 246/11/1 247/5/1 248/7/1
f 249/12/2 250/4/2 251/10/2
f 249/12/2 252/2/2 250/4/2
f 253/1/11 254/2/11 255/3/11
f 253/1/11 256/4/11 254/2/11
f 257/5/12 258/6/12 259/7/12
f 257/5/12 260/8/12 258/6/12
f 261/9/13 262/4/13 263/1/13
f 261/9/13 264/10/13 262/4/13
f 265/11/14 266/8/14 267/5/14
f 268/3/14 269/2/14 270/12/14
f 271/3/1 272/9/1 273/1/1
f 274/11/1 275/5/1 276/7/1
f 277/12/2 278/4/2 279/10/2
f 277/12/2 280/2/2 278/4/2
f 281/1/11 282/2/11 283/3/11
f 281/1/11 284/4/11 282/2/11
f 285/5/12 286/6/12 287/7/12
f 285/5/12 288/8/12 286/6/12
f 289/9/13 290/4/13 291/1/13
f 289/9/13 292/10/13 290/4/13
f 293/11/14 294/8/14 295/5/14
f 296/3/14 297/2/14 298/12/14
f 299/3/1 300/9/1 301/1/1
f 302/11/1 303/5/1 304/7/1
f 305/12/2 306/4/2 307/10/2
f 305/12/2 308/2/2 306/4/2
