# Blender 5.2.2 LTS
# www.blender.org
mtllib witherx.mtl
o Object_12
v 0.055690 0.281600 -0.536506
v -0.038673 0.281600 1.093004
v 0.266728 0.281600 1.052442
v -0.249711 0.281600 -0.495944
v 0.266728 0.076775 1.052442
v -0.249711 0.076775 -0.495944
v 0.055690 0.076775 -0.536506
v -0.038673 0.076775 1.093004
v 0.055690 0.076775 -0.536506
v -0.249711 0.281600 -0.495944
v 0.055690 0.281600 -0.536506
v -0.249711 0.076775 -0.495944
v 0.266728 0.281600 1.052442
v -0.038673 0.076775 1.093004
v 0.266728 0.076775 1.052442
v 0.266728 0.281600 1.052442
v -0.038673 0.281600 1.093004
v -0.038673 0.076775 1.093004
v 0.266728 0.281600 1.052442
v 0.055690 0.076775 -0.536506
v 0.055690 0.281600 -0.536506
v 0.266728 0.281600 1.052442
v 0.266728 0.076775 1.052442
v 0.055690 0.076775 -0.536506
v -0.038673 0.076775 1.093004
v -0.249711 0.281600 -0.495944
v -0.249711 0.076775 -0.495944
v -0.038673 0.281600 1.093004
v -0.063855 -0.446769 0.314695
v 0.088412 -0.446770 0.775648
v -0.039466 -0.446770 0.771273
v 0.064024 -0.446769 0.319070
v -0.039466 -0.291579 0.771273
v 0.064024 -0.291579 0.319070
v -0.063855 -0.291579 0.314695
v 0.088412 -0.291579 0.775648
v -0.063855 -0.291579 0.314695
v 0.064024 -0.446769 0.319070
v -0.063855 -0.446769 0.314695
v 0.064024 -0.291579 0.319070
v -0.039466 -0.446770 0.771273
v 0.088412 -0.291579 0.775648
v -0.039466 -0.291579 0.771273
v -0.039466 -0.446770 0.771273
v 0.088412 -0.446770 0.775648
v 0.088412 -0.291579 0.775648
v -0.039466 -0.446770 0.771273
v -0.063855 -0.291579 0.314695
v -0.063855 -0.446769 0.314695
v -0.039466 -0.446770 0.771273
v -0.039466 -0.291579 0.771273
v -0.063855 -0.291579 0.314695
v 0.088412 -0.291579 0.775648
v 0.064024 -0.446769 0.319070
v 0.064024 -0.291579 0.319070
v 0.088412 -0.446770 0.775648
v -0.063583 -0.265066 0.319778
v 0.088684 -0.265066 0.780731
v -0.039195 -0.265066 0.776356
v 0.064296 -0.265066 0.324153
v -0.039195 -0.109875 0.776356
v 0.064296 -0.109875 0.324153
v -0.063583 -0.109875 0.319778
v 0.088684 -0.109875 0.780731
v -0.063583 -0.109875 0.319778
v 0.064296 -0.265066 0.324153
v -0.063583 -0.265066 0.319778
v 0.064296 -0.109875 0.324153
v -0.039195 -0.265066 0.776356
v 0.088684 -0.109875 0.780731
v -0.039195 -0.109875 0.776356
v -0.039195 -0.265066 0.776356
v 0.088684 -0.265066 0.780731
v 0.088684 -0.109875 0.780731
v -0.039195 -0.265066 0.776356
v -0.063583 -0.109875 0.319778
v -0.063583 -0.265066 0.319778
v -0.039195 -0.265066 0.776356
v -0.039195 -0.109875 0.776356
v -0.063583 -0.109875 0.319778
v 0.088684 -0.109875 0.780731
v 0.064296 -0.265066 0.324153
v 0.064296 -0.109875 0.324153
v 0.088684 -0.265066 0.780731
v -0.063179 -0.075929 0.327349
v 0.089088 -0.075929 0.788302
v -0.038790 -0.075929 0.783927
v 0.064700 -0.075929 0.331723
v -0.038790 0.079262 0.783927
v 0.064700 0.079262 0.331723
v -0.063179 0.079262 0.327349
v 0.089088 0.079262 0.788302
v -0.063179 0.079262 0.327349
v 0.064700 -0.075929 0.331723
v -0.063179 -0.075929 0.327349
v 0.064700 0.079262 0.331723
v -0.038790 -0.075929 0.783927
v 0.089088 0.079262 0.788302
v -0.038790 0.079262 0.783927
v -0.038790 -0.075929 0.783927
v 0.089088 -0.075929 0.788302
v 0.089088 0.079262 0.788302
v -0.038790 -0.075929 0.783927
v -0.063179 0.079262 0.327349
v -0.063179 -0.075929 0.327349
v -0.038790 -0.075929 0.783927
v -0.038790 0.079262 0.783927
v -0.063179 0.079262 0.327349
v 0.089088 0.079262 0.788302
v 0.064700 -0.075929 0.331723
v 0.064700 0.079262 0.331723
v 0.089088 -0.075929 0.788302
v -0.091968 -0.267553 -0.211626
v 0.060299 -0.267553 0.249327
v -0.067580 -0.267553 0.244953
v 0.035911 -0.267553 -0.207251
v -0.067580 -0.112362 0.244953
v 0.035911 -0.112362 -0.207251
v -0.091968 -0.112362 -0.211626
v 0.060299 -0.112362 0.249327
v -0.091968 -0.112362 -0.211626
v 0.035911 -0.267553 -0.207251
v -0.091968 -0.267553 -0.211626
v 0.035911 -0.112362 -0.207251
v -0.067580 -0.267553 0.244953
v 0.060299 -0.112362 0.249327
v -0.067580 -0.112362 0.244953
v -0.067580 -0.267553 0.244953
v 0.060299 -0.267553 0.249327
v 0.060299 -0.112362 0.249327
v -0.067580 -0.267553 0.244953
v -0.091968 -0.112362 -0.211626
v -0.091968 -0.267553 -0.211626
v -0.067580 -0.267553 0.244953
v -0.067580 -0.112362 0.244953
v -0.091968 -0.112362 -0.211626
v 0.060299 -0.112362 0.249327
v 0.035911 -0.267553 -0.207251
v 0.035911 -0.112362 -0.207251
v 0.060299 -0.267553 0.249327
v -0.092239 -0.449257 -0.216709
v 0.060028 -0.449257 0.244244
v -0.067851 -0.449257 0.239869
v 0.035639 -0.449257 -0.212334
v -0.067851 -0.294066 0.239869
v 0.035639 -0.294066 -0.212334
v -0.092239 -0.294066 -0.216709
v 0.060028 -0.294066 0.244244
v -0.092239 -0.294066 -0.216709
v 0.035639 -0.449257 -0.212334
v -0.092239 -0.449257 -0.216709
v 0.035639 -0.294066 -0.212334
v -0.067851 -0.449257 0.239869
v 0.060028 -0.294066 0.244244
v -0.067851 -0.294066 0.239869
v -0.067851 -0.449257 0.239869
v 0.060028 -0.449257 0.244244
v 0.060028 -0.294066 0.244244
v -0.067851 -0.449257 0.239869
v -0.092239 -0.294066 -0.216709
v -0.092239 -0.449257 -0.216709
v -0.067851 -0.449257 0.239869
v -0.067851 -0.294066 0.239869
v -0.092239 -0.294066 -0.216709
v 0.060028 -0.294066 0.244244
v 0.035639 -0.449257 -0.212334
v 0.035639 -0.294066 -0.212334
v 0.060028 -0.449257 0.244244
v -0.057758 -0.653872 0.428833
v 0.144931 0.164518 0.435767
v -0.057758 0.164518 0.428833
v 0.144931 -0.653872 0.435767
v -0.070973 0.164518 0.181432
v 0.131715 -0.653872 0.188365
v -0.070973 -0.653872 0.181431
v 0.131715 0.164518 0.188365
v -0.070973 -0.653872 0.181431
v 0.144931 -0.653872 0.435767
v -0.057758 -0.653872 0.428833
v 0.131715 -0.653872 0.188365
v -0.057758 0.164518 0.428833
v 0.131715 0.164518 0.188365
v -0.070973 0.164518 0.181432
v -0.057758 0.164518 0.428833
v 0.144931 0.164518 0.435767
v 0.131715 0.164518 0.188365
v -0.057758 0.164518 0.428833
v -0.070973 -0.653872 0.181431
v -0.057758 -0.653872 0.428833
v -0.057758 0.164518 0.428833
v -0.070973 0.164518 0.181432
v -0.070973 -0.653872 0.181431
v 0.131715 0.164518 0.188365
v 0.144931 -0.653872 0.435767
v 0.131715 -0.653872 0.188365
v 0.144931 0.164518 0.435767
v -0.091563 -0.078416 -0.204055
v 0.060704 -0.078416 0.256898
v -0.067175 -0.078416 0.252523
v 0.036316 -0.078416 -0.199680
v -0.067175 0.076775 0.252523
v 0.036315 0.076775 -0.199680
v -0.091563 0.076775 -0.204055
v 0.060704 0.076775 0.256898
v -0.091563 0.076775 -0.204055
v 0.036316 -0.078416 -0.199680
v -0.091563 -0.078416 -0.204055
v 0.036315 0.076775 -0.199680
v -0.067175 -0.078416 0.252523
v 0.060704 0.076775 0.256898
v -0.067175 0.076775 0.252523
v -0.067175 -0.078416 0.252523
v 0.060704 -0.078416 0.256898
v 0.060704 0.076775 0.256898
v -0.067175 -0.078416 0.252523
v -0.091563 0.076775 -0.204055
v -0.091563 -0.078416 -0.204055
v -0.067175 -0.078416 0.252523
v -0.067175 0.076775 0.252523
v -0.091563 0.076775 -0.204055
v 0.060704 0.076775 0.256898
v 0.036316 -0.078416 -0.199680
v 0.036315 0.076775 -0.199680
v 0.060704 -0.078416 0.256898
v -0.196374 0.708981 0.034529
v -0.185906 0.192028 0.551376
v -0.185906 0.708981 0.551376
v -0.196374 0.192028 0.034529
v 0.330941 0.708981 0.540908
v 0.320473 0.192028 0.024061
v 0.320473 0.708981 0.024061
v 0.330941 0.192028 0.540908
v 0.320473 0.708981 0.024061
v -0.196374 0.192028 0.034529
v -0.196374 0.708981 0.034529
v 0.320473 0.192028 0.024061
v -0.185906 0.708981 0.551376
v 0.330941 0.192028 0.540908
v 0.330941 0.708981 0.540908
v -0.185906 0.708981 0.551376
v -0.185906 0.192028 0.551376
v 0.330941 0.192028 0.540908
v -0.185906 0.708981 0.551376
v 0.320473 0.708981 0.024061
v -0.196374 0.708981 0.034529
v -0.185906 0.708981 0.551376
v 0.330941 0.708981 0.540908
v 0.320473 0.708981 0.024061
v 0.330941 0.192028 0.540908
v -0.196374 0.192028 0.034529
v 0.320473 0.192028 0.024061
v -0.185906 0.192028 0.551376
v -0.183117 0.648307 0.689096
v -0.172649 0.131353 1.205944
v -0.172649 0.648307 1.205944
v -0.183117 0.131353 0.689096
v 0.344198 0.648307 1.195476
v 0.333730 0.131353 0.678628
v 0.333730 0.648307 0.678628
v 0.344198 0.131353 1.195476
v 0.333730 0.648307 0.678628
v -0.183117 0.131353 0.689096
v -0.183117 0.648307 0.689096
v 0.333730 0.131353 0.678628
v -0.172649 0.648307 1.205944
v 0.344198 0.131353 1.195476
v 0.344198 0.648307 1.195476
v -0.172649 0.648307 1.205944
v -0.172649 0.131353 1.205944
v 0.344198 0.131353 1.195476
v -0.172649 0.648307 1.205944
v 0.333730 0.648307 0.678628
v -0.183117 0.648307 0.689096
v -0.172649 0.648307 1.205944
v 0.344198 0.648307 1.195476
v 0.333730 0.648307 0.678628
v 0.344198 0.131353 1.195476
v -0.183117 0.131353 0.689096
v 0.333730 0.131353 0.678628
v -0.172649 0.131353 1.205944
v -0.210094 0.643246 -0.642878
v -0.199626 0.126292 -0.126031
v -0.199626 0.643246 -0.126031
v -0.210094 0.126292 -0.642878
v 0.317221 0.643246 -0.136499
v 0.306753 0.126292 -0.653346
v 0.306753 0.643246 -0.653346
v 0.317221 0.126292 -0.136499
v 0.306753 0.643246 -0.653346
v -0.210094 0.126292 -0.642878
v -0.210094 0.643246 -0.642878
v 0.306753 0.126292 -0.653346
v -0.199626 0.643246 -0.126031
v 0.317221 0.126292 -0.136499
v 0.317221 0.643246 -0.136499
v -0.199626 0.643246 -0.126031
v -0.199626 0.126292 -0.126031
v 0.317221 0.126292 -0.136499
v -0.199626 0.643246 -0.126031
v 0.306753 0.643246 -0.653346
v -0.210094 0.643246 -0.642878
v -0.199626 0.643246 -0.126031
v 0.317221 0.643246 -0.136499
v 0.306753 0.643246 -0.653346
v 0.317221 0.126292 -0.136499
v -0.210094 0.126292 -0.642878
v 0.306753 0.126292 -0.653346
v -0.199626 0.126292 -0.126031
vn -0.0000 1.0000 -0.0000
vn -0.0000 -1.0000 -0.0000
vn -0.1317 -0.0000 -0.9913
vn 0.1317 -0.0000 0.9913
vn 0.9913 -0.0000 -0.1317
vn -0.9913 -0.0000 0.1317
vn 0.0342 -0.0000 -0.9994
vn -0.0342 -0.0000 0.9994
vn -0.9986 -0.0000 0.0533
vn 0.9986 -0.0000 -0.0533
vn -0.9998 -0.0000 0.0202
vn 0.9998 -0.0000 -0.0202
vn -0.0202 -0.0000 -0.9998
vn 0.0202 -0.0000 0.9998
vt 0.254811 0.653616
vt 0.470014 0.860613
vt 0.000114 0.999853
vt 0.492690 0.634836
vt 0.629882 0.248018
vt 0.341395 0.005903
vt 0.723618 0.000165
vt 0.402116 0.383316
vt 0.222461 0.328739
vt 0.667834 0.473177
vt 0.863118 0.443680
vt 0.863545 0.978684
s 1
usemtl material_1
f 1/1/1 2/2/1 3/3/1
f 1/1/1 4/4/1 2/2/1
f 5/5/2 6/6/2 7/7/2
f 5/5/2 8/8/2 6/6/2
f 9/9/3 10/4/3 11/1/3
f 9/9/3 12/10/3 10/4/3
f 13/11/4 14/8/4 15/5/4
f 16/3/4 17/2/4 18/12/4
f 19/3/5 20/9/5 21/1/5
f 22/11/5 23/5/5 24/7/5
f 25/12/6 26/4/6 27/10/6
f 25/12/6 28/2/6 26/4/6
usemtl material_2
f 29/1/2 30/2/2 31/3/2
f 29/1/2 32/4/2 30/2/2
f 33/5/1 34/6/1 35/7/1
f 33/5/1 36/8/1 34/6/1
f 37/9/7 38/4/7 39/1/7
f 37/9/7 40/10/7 38/4/7
f 41/11/8 42/8/8 43/5/8
f 44/3/8 45/2/8 46/12/8
f 47/3/9 48/9/9 49/1/9
f 50/11/9 51/5/9 52/7/9
f 53/12/10 54/4/10 55/10/10
f 53/12/10 56/2/10 54/4/10
f 57/1/2 58/2/2 59/3/2
f 57/1/2 60/4/2 58/2/2
f 61/5/1 62/6/1 63/7/1
f 61/5/1 64/8/1 62/6/1
f 65/9/7 66/4/7 67/1/7
f 65/9/7 68/10/7 66/4/7
f 69/11/8 70/8/8 71/5/8
f 72/3/8 73/2/8 74/12/8
f 75/3/9 76/9/9 77/1/9
f 78/11/9 79/5/9 80/7/9
f 81/12/10 82/4/10 83/10/10
f 81/12/10 84/2/10 82/4/10
f 85/1/2 86/2/2 87/3/2
f 85/1/2 88/4/2 86/2/2
f 89/5/1 90/6/1 91/7/1
f 89/5/1 92/8/1 90/6/1
f 93/9/7 94/4/7 95/1/7
f 93/9/7 96/10/7 94/4/7
f 97/11/8 98/8/8 99/5/8
f 100/3/8 101/2/8 102/12/8
f 103/3/9 104/9/9 105/1/9
f 106/11/9 107/5/9 108/7/9
f 109/12/10 110/4/10 111/10/10
f 109/12/10 112/2/10 110/4/10
f 113/1/2 114/2/2 115/3/2
f 113/1/2 116/4/2 114/2/2
f 117/5/1 118/6/1 119/7/1
f 117/5/1 120/8/1 118/6/1
f 121/9/7 122/4/7 123/1/7
f 121/9/7 124/10/7 122/4/7
f 125/11/8 126/8/8 127/5/8
f 128/3/8 129/2/8 130/12/8
f 131/3/9 132/9/9 133/1/9
f 134/11/9 135/5/9 136/7/9
f 137/12/10 138/4/10 139/10/10
f 137/12/10 140/2/10 138/4/10
f 141/1/2 142/2/2 143/3/2
f 141/1/2 144/4/2 142/2/2
f 145/5/1 146/6/1 147/7/1
f 145/5/1 148/8/1 146/6/1
f 149/9/7 150/4/7 151/1/7
f 149/9/7 152/10/7 150/4/7
f 153/11/8 154/8/8 155/5/8
f 156/3/8 157/2/8 158/12/8
f 159/3/9 160/9/9 161/1/9
f 162/11/9 163/5/9 164/7/9
f 165/12/10 166/4/10 167/10/10
f 165/12/10 168/2/10 166/4/10
f 197/1/2 198/2/2 199/3/2
f 197/1/2 200/4/2 198/2/2
f 201/5/1 202/6/1 203/7/1
f 201/5/1 204/8/1 202/6/1
f 205/9/7 206/4/7 207/1/7
f 205/9/7 208/10/7 206/4/7
f 209/11/8 210/8/8 211/5/8
f 212/3/8 213/2/8 214/12/8
f 215/3/9 216/9/9 217/1/9
f 218/11/9 219/5/9 220/7/9
f 221/12/10 222/4/10 223/10/10
f 221/12/10 224/2/10 222/4/10
usemtl material_3
f 169/1/8 170/2/8 171/3/8
f 169/1/8 172/4/8 170/2/8
f 173/5/7 174/6/7 175/7/7
f 173/5/7 176/8/7 174/6/7
f 177/9/2 178/4/2 179/1/2
f 177/9/2 180/10/2 178/4/2
f 181/11/1 182/8/1 183/5/1
f 184/3/1 185/2/1 186/12/1
f 187/3/9 188/9/9 189/1/9
f 190/11/9 191/5/9 192/7/9
f 193/12/10 194/4/10 195/10/10
f 193/12/10 196/2/10 194/4/10
usemtl material_0
f 225/1/11 226/2/11 227/3/11
f 225/1/11 228/4/11 226/2/11
f 229/5/12 230/6/12 231/7/12
f 229/5/12 232/8/12 230/6/12
f 233/9/13 234/4/13 235/1/13
f 233/9/13 236/10/13 234/4/13
f 237/11/14 238/8/14 239/5/14
f 240/3/14 241/2/14 242/12/14
f 243/3/1 244/9/1 245/1/1
f 246/11/1 247/5/1 248/7/1
f 249/12/2 250/4/2 251/10/2
f 249/12/2 252/2/2 250/4/2
f 253/1/11 254/2/11 255/3/11
f 253/1/11 256/4/11 254/2/11
f 257/5/12 258/6/12 259/7/12
f 257/5/12 260/8/12 258/6/12
f 261/9/13 262/4/13 263/1/13
f 261/9/13 264/10/13 262/4/13
f 265/11/14 266/8/14 267/5/14
f 268/3/14 269/2/14 270/12/14
f 271/3/1 272/9/1 273/1/1
f 274/11/1 275/5/1 276/7/1
f 277/12/2 278/4/2 279/10/2
f 277/12/2 280/2/2 278/4/2
f 281/1/11 282/2/11 283/3/11
f 281/1/11 284/4/11 282/2/11
f 285/5/12 286/6/12 287/7/12
f 285/5/12 288/8/12 286/6/12
f 289/9/13 290/4/13 291/1/13
f 289/9/13 292/10/13 290/4/13
f 293/11/14 294/8/14 295/5/14
f 296/3/14 297/2/14 298/12/14
f 299/3/1 300/9/1 301/1/1
f 302/11/1 303/5/1 304/7/1
f 305/12/2 306/4/2 307/10/2
f 305/12/2 308/2/2 306/4/2
