# Blender 5.2.2 LTS
# www.blender.org
mtllib wither2x.mtl
o Object_12
v -0.083305 0.137786 -0.235923
v -0.153655 0.137786 0.978917
v 0.074028 0.137786 0.948676
v -0.310989 0.137786 -0.205683
v 0.074029 -0.014917 0.948676
v -0.310989 -0.014917 -0.205683
v -0.083305 -0.014917 -0.235923
v -0.153655 -0.014917 0.978917
v -0.083305 -0.014917 -0.235923
v -0.310989 0.137786 -0.205683
v -0.083305 0.137786 -0.235923
v -0.310989 -0.014917 -0.205683
v 0.074028 0.137786 0.948676
v -0.153655 -0.014917 0.978917
v 0.074029 -0.014917 0.948676
v 0.074028 0.137786 0.948676
v -0.153655 0.137786 0.978917
v -0.153655 -0.014917 0.978917
v 0.074028 0.137786 0.948676
v -0.083305 -0.014917 -0.235923
v -0.083305 0.137786 -0.235923
v 0.074028 0.137786 0.948676
v 0.074029 -0.014917 0.948676
v -0.083305 -0.014917 -0.235923
v -0.153655 -0.014917 0.978917
v -0.310989 0.137786 -0.205683
v -0.310989 -0.014917 -0.205683
v -0.153655 0.137786 0.978917
v -0.172429 -0.405231 0.398668
v -0.058910 -0.405231 0.742319
v -0.154247 -0.405231 0.739058
v -0.077092 -0.405231 0.401929
v -0.154247 -0.289533 0.739058
v -0.077092 -0.289533 0.401929
v -0.172429 -0.289533 0.398668
v -0.058910 -0.289533 0.742319
v -0.172429 -0.289533 0.398668
v -0.077092 -0.405231 0.401929
v -0.172429 -0.405231 0.398668
v -0.077092 -0.289533 0.401929
v -0.154247 -0.405231 0.739058
v -0.058910 -0.289533 0.742319
v -0.154247 -0.289533 0.739058
v -0.154247 -0.405231 0.739058
v -0.058910 -0.405231 0.742319
v -0.058910 -0.289533 0.742319
v -0.154247 -0.405231 0.739058
v -0.172429 -0.289533 0.398668
v -0.172429 -0.405231 0.398668
v -0.154247 -0.405231 0.739058
v -0.154247 -0.289533 0.739058
v -0.172429 -0.289533 0.398668
v -0.058910 -0.289533 0.742319
v -0.077092 -0.405231 0.401929
v -0.077092 -0.289533 0.401929
v -0.058910 -0.405231 0.742319
v -0.172226 -0.269767 0.402457
v -0.058708 -0.269767 0.746109
v -0.154044 -0.269767 0.742848
v -0.076890 -0.269767 0.405719
v -0.154044 -0.154069 0.742848
v -0.076890 -0.154068 0.405719
v -0.172226 -0.154068 0.402457
v -0.058708 -0.154069 0.746109
v -0.172226 -0.154068 0.402457
v -0.076890 -0.269767 0.405719
v -0.172226 -0.269767 0.402457
v -0.076890 -0.154068 0.405719
v -0.154044 -0.269767 0.742848
v -0.058708 -0.154069 0.746109
v -0.154044 -0.154069 0.742848
v -0.154044 -0.269767 0.742848
v -0.058708 -0.269767 0.746109
v -0.058708 -0.154069 0.746109
v -0.154044 -0.269767 0.742848
v -0.172226 -0.154068 0.402457
v -0.172226 -0.269767 0.402457
v -0.154044 -0.269767 0.742848
v -0.154044 -0.154069 0.742848
v -0.172226 -0.154068 0.402457
v -0.058708 -0.154069 0.746109
v -0.076890 -0.269767 0.405719
v -0.076890 -0.154068 0.405719
v -0.058708 -0.269767 0.746109
v -0.171925 -0.128761 0.408102
v -0.058406 -0.128761 0.751753
v -0.153743 -0.128761 0.748492
v -0.076588 -0.128760 0.411363
v -0.153743 -0.013062 0.748492
v -0.076588 -0.013062 0.411363
v -0.171925 -0.013062 0.408102
v -0.058406 -0.013062 0.751753
v -0.171925 -0.013062 0.408102
v -0.076588 -0.128760 0.411363
v -0.171925 -0.128761 0.408102
v -0.076588 -0.013062 0.411363
v -0.153743 -0.128761 0.748492
v -0.058406 -0.013062 0.751753
v -0.153743 -0.013062 0.748492
v -0.153743 -0.128761 0.748492
v -0.058406 -0.128761 0.751753
v -0.058406 -0.013062 0.751753
v -0.153743 -0.128761 0.748492
v -0.171925 -0.013062 0.408102
v -0.171925 -0.128761 0.408102
v -0.153743 -0.128761 0.748492
v -0.153743 -0.013062 0.748492
v -0.171925 -0.013062 0.408102
v -0.058406 -0.013062 0.751753
v -0.076588 -0.128760 0.411363
v -0.076588 -0.013062 0.411363
v -0.058406 -0.128761 0.751753
v -0.193388 -0.271621 0.006283
v -0.079869 -0.271621 0.349935
v -0.175206 -0.271621 0.346673
v -0.098051 -0.271621 0.009544
v -0.175206 -0.155923 0.346673
v -0.098051 -0.155923 0.009544
v -0.193388 -0.155923 0.006283
v -0.079869 -0.155923 0.349935
v -0.193388 -0.155923 0.006283
v -0.098051 -0.271621 0.009544
v -0.193388 -0.271621 0.006283
v -0.098051 -0.155923 0.009544
v -0.175206 -0.271621 0.346673
v -0.079869 -0.155923 0.349935
v -0.175206 -0.155923 0.346673
v -0.175206 -0.271621 0.346673
v -0.079869 -0.271621 0.349935
v -0.079869 -0.155923 0.349935
v -0.175206 -0.271621 0.346673
v -0.193388 -0.155923 0.006283
v -0.193388 -0.271621 0.006283
v -0.175206 -0.271621 0.346673
v -0.175206 -0.155923 0.346673
v -0.193388 -0.155923 0.006283
v -0.079869 -0.155923 0.349935
v -0.098051 -0.271621 0.009544
v -0.098051 -0.155923 0.009544
v -0.079869 -0.271621 0.349935
v -0.193590 -0.407086 0.002493
v -0.080071 -0.407086 0.346145
v -0.175408 -0.407086 0.342884
v -0.098253 -0.407086 0.005755
v -0.175408 -0.291387 0.342884
v -0.098254 -0.291387 0.005755
v -0.193590 -0.291387 0.002493
v -0.080071 -0.291387 0.346145
v -0.193590 -0.291387 0.002493
v -0.098253 -0.407086 0.005755
v -0.193590 -0.407086 0.002493
v -0.098254 -0.291387 0.005755
v -0.175408 -0.407086 0.342884
v -0.080071 -0.291387 0.346145
v -0.175408 -0.291387 0.342884
v -0.175408 -0.407086 0.342884
v -0.080071 -0.407086 0.346145
v -0.080071 -0.291387 0.346145
v -0.175408 -0.407086 0.342884
v -0.193590 -0.291387 0.002493
v -0.193590 -0.407086 0.002493
v -0.175408 -0.407086 0.342884
v -0.175408 -0.291387 0.342884
v -0.193590 -0.291387 0.002493
v -0.080071 -0.291387 0.346145
v -0.098253 -0.407086 0.005755
v -0.098254 -0.291387 0.005755
v -0.080071 -0.407086 0.346145
v -0.167883 -0.559631 0.483760
v -0.016774 0.050498 0.488930
v -0.167883 0.050498 0.483761
v -0.016774 -0.559631 0.488930
v -0.177735 0.050498 0.299317
v -0.026626 -0.559631 0.304486
v -0.177735 -0.559631 0.299316
v -0.026626 0.050499 0.304486
v -0.177735 -0.559631 0.299316
v -0.016774 -0.559631 0.488930
v -0.167883 -0.559631 0.483760
v -0.026626 -0.559631 0.304486
v -0.167883 0.050498 0.483761
v -0.026626 0.050499 0.304486
v -0.177735 0.050498 0.299317
v -0.167883 0.050498 0.483761
v -0.016774 0.050498 0.488930
v -0.026626 0.050499 0.304486
v -0.167883 0.050498 0.483761
v -0.177735 -0.559631 0.299316
v -0.167883 -0.559631 0.483760
v -0.167883 0.050498 0.483761
v -0.177735 0.050498 0.299317
v -0.177735 -0.559631 0.299316
v -0.026626 0.050499 0.304486
v -0.016774 -0.559631 0.488930
v -0.026626 -0.559631 0.304486
v -0.016774 0.050498 0.488930
v -0.193086 -0.130615 0.011927
v -0.079567 -0.130615 0.355579
v -0.174904 -0.130615 0.352318
v -0.097749 -0.130615 0.015189
v -0.174904 -0.014917 0.352318
v -0.097749 -0.014917 0.015189
v -0.193086 -0.014917 0.011927
v -0.079567 -0.014917 0.355579
v -0.193086 -0.014917 0.011927
v -0.097749 -0.130615 0.015189
v -0.193086 -0.130615 0.011927
v -0.097749 -0.014917 0.015189
v -0.174904 -0.130615 0.352318
v -0.079567 -0.014917 0.355579
v -0.174904 -0.014917 0.352318
v -0.174904 -0.130615 0.352318
v -0.079567 -0.130615 0.355579
v -0.079567 -0.014917 0.355579
v -0.174904 -0.130615 0.352318
v -0.193086 -0.014917 0.011927
v -0.193086 -0.130615 0.011927
v -0.174904 -0.130615 0.352318
v -0.174904 -0.014917 0.352318
v -0.193086 -0.014917 0.011927
v -0.079567 -0.014917 0.355579
v -0.097749 -0.130615 0.015189
v -0.097749 -0.014917 0.015189
v -0.079567 -0.130615 0.355579
v -0.271225 0.456409 0.189798
v -0.263421 0.071008 0.575120
v -0.263421 0.456409 0.575120
v -0.271225 0.071008 0.189798
v 0.121901 0.456409 0.567316
v 0.114097 0.071008 0.181993
v 0.114097 0.456409 0.181993
v 0.121901 0.071008 0.567316
v 0.114097 0.456409 0.181993
v -0.271225 0.071008 0.189798
v -0.271225 0.456409 0.189798
v 0.114097 0.071008 0.181993
v -0.263421 0.456409 0.575120
v 0.121901 0.071008 0.567316
v 0.121901 0.456409 0.567316
v -0.263421 0.456409 0.575120
v -0.263421 0.071008 0.575120
v 0.121901 0.071008 0.567316
v -0.263421 0.456409 0.575120
v 0.114097 0.456409 0.181993
v -0.271225 0.456409 0.189798
v -0.263421 0.456409 0.575120
v 0.121901 0.456409 0.567316
v 0.114097 0.456409 0.181993
v 0.121901 0.071008 0.567316
v -0.271225 0.071008 0.189798
v 0.114097 0.071008 0.181993
v -0.263421 0.071008 0.575120
v -0.261342 0.411175 0.677793
v -0.253537 0.025773 1.063115
v -0.253538 0.411175 1.063115
v -0.261342 0.025773 0.677793
v 0.131785 0.411175 1.055311
v 0.123980 0.025773 0.669989
v 0.123980 0.411175 0.669989
v 0.131785 0.025773 1.055311
v 0.123980 0.411175 0.669989
v -0.261342 0.025773 0.677793
v -0.261342 0.411175 0.677793
v 0.123980 0.025773 0.669989
v -0.253538 0.411175 1.063115
v 0.131785 0.025773 1.055311
v 0.131785 0.411175 1.055311
v -0.253538 0.411175 1.063115
v -0.253537 0.025773 1.063115
v 0.131785 0.025773 1.055311
v -0.253538 0.411175 1.063115
v 0.123980 0.411175 0.669989
v -0.261342 0.411175 0.677793
v -0.253538 0.411175 1.063115
v 0.131785 0.411175 1.055311
v 0.123980 0.411175 0.669989
v 0.131785 0.025773 1.055311
v -0.261342 0.025773 0.677793
v 0.123980 0.025773 0.669989
v -0.253537 0.025773 1.063115
v -0.281454 0.407401 -0.315226
v -0.273650 0.022000 0.070096
v -0.273650 0.407401 0.070096
v -0.281454 0.022000 -0.315226
v 0.111672 0.407401 0.062292
v 0.103868 0.022000 -0.323030
v 0.103868 0.407401 -0.323030
v 0.111672 0.022000 0.062292
v 0.103868 0.407401 -0.323030
v -0.281454 0.022000 -0.315226
v -0.281454 0.407401 -0.315226
v 0.103868 0.022000 -0.323030
v -0.273650 0.407401 0.070096
v 0.111672 0.022000 0.062292
v 0.111672 0.407401 0.062292
v -0.273650 0.407401 0.070096
v -0.273650 0.022000 0.070096
v 0.111672 0.022000 0.062292
v -0.273650 0.407401 0.070096
v 0.103868 0.407401 -0.323030
v -0.281454 0.407401 -0.315226
v -0.273650 0.407401 0.070096
v 0.111672 0.407401 0.062292
v 0.103868 0.407401 -0.323030
v 0.111672 0.022000 0.062292
v -0.281454 0.022000 -0.315226
v 0.103868 0.022000 -0.323030
v -0.273650 0.022000 0.070096
vn -0.0000 1.0000 -0.0000
vn -0.0000 -1.0000 -0.0000
vn -0.1317 -0.0000 -0.9913
vn 0.1317 -0.0000 0.9913
vn 0.9913 -0.0000 -0.1317
vn -0.9913 -0.0000 0.1317
vn 0.0342 -0.0000 -0.9994
vn -0.0342 -0.0000 0.9994
vn -0.9986 -0.0000 0.0533
vn 0.9986 -0.0000 -0.0533
vn -0.9998 -0.0000 0.0202
vn 0.9998 -0.0000 -0.0202
vn -0.0202 -0.0000 -0.9998
vn 0.0202 -0.0000 0.9998
vt 0.254811 0.653616
vt 0.470014 0.860613
vt 0.000114 0.999853
vt 0.492690 0.634836
vt 0.629882 0.248018
vt 0.341395 0.005903
vt 0.723618 0.000165
vt 0.402116 0.383316
vt 0.222461 0.328739
vt 0.667834 0.473177
vt 0.863118 0.443680
vt 0.863545 0.978684
s 1
usemtl material_1
f 1/1/1 2/2/1 3/3/1
f 1/1/1 4/4/1 2/2/1
f 5/5/2 6/6/2 7/7/2
f 5/5/2 8/8/2 6/6/2
f 9/9/3 10/4/3 11/1/3
f 9/9/3 12/10/3 10/4/3
f 13/11/4 14/8/4 15/5/4
f 16/3/4 17/2/4 18/12/4
f 19/3/5 20/9/5 21/1/5
f 22/11/5 23/5/5 24/7/5
f 25/12/6 26/4/6 27/10/6
f 25/12/6 28/2/6 26/4/6
usemtl material_2
f 29/1/2 30/2/2 31/3/2
f 29/1/2 32/4/2 30/2/2
f 33/5/1 34/6/1 35/7/1
f 33/5/1 36/8/1 34/6/1
f 37/9/7 38/4/7 39/1/7
f 37/9/7 40/10/7 38/4/7
f 41/11/8 42/8/8 43/5/8
f 44/3/8 45/2/8 46/12/8
f 47/3/9 48/9/9 49/1/9
f 50/11/9 51/5/9 52/7/9
f 53/12/10 54/4/10 55/10/10
f 53/12/10 56/2/10 54/4/10
f 57/1/2 58/2/2 59/3/2
f 57/1/2 60/4/2 58/2/2
f 61/5/1 62/6/1 63/7/1
f 61/5/1 64/8/1 62/6/1
f 65/9/7 66/4/7 67/1/7
f 65/9/7 68/10/7 66/4/7
f 69/11/8 70/8/8 71/5/8
f 72/3/8 73/2/8 74/12/8
f 75/3/9 76/9/9 77/1/9
f 78/11/9 79/5/9 80/7/9
f 81/12/10 82/4/10 83/10/10
f 81/12/10 84/2/10 82/4/10
f 85/1/2 86/2/2 87/3/2
f 85/1/2 88/4/2 86/2/2
f 89/5/1 90/6/1 91/7/1
f 89/5/1 92/8/1 90/6/1
f 93/9/7 94/4/7 95/1/7
f 93/9/7 96/10/7 94/4/7
f 97/11/8 98/8/8 99/5/8
f 100/3/8 101/2/8 102/12/8
f 103/3/9 104/9/9 105/1/9
f 106/11/9 107/5/9 108/7/9
f 109/12/10 110/4/10 111/10/10
f 109/12/10 112/2/10 110/4/10
f 113/1/2 114/2/2 115/3/2
f 113/1/2 116/4/2 114/2/2
f 117/5/1 118/6/1 119/7/1
f 117/5/1 120/8/1 118/6/1
f 121/9/7 122/4/7 123/1/7
f 121/9/7 124/10/7 122/4/7
f 125/11/8 126/8/8 127/5/8
f 128/3/8 129/2/8 130/12/8
f 131/3/9 132/9/9 133/1/9
f 134/11/9 135/5/9 136/7/9
f 137/12/10 138/4/10 139/10/10
f 137/12/10 140/2/10 138/4/10
f 141/1/2 142/2/2 143/3/2
f 141/1/2 144/4/2 142/2/2
f 145/5/1 146/6/1 147/7/1
f 145/5/1 148/8/1 146/6/1
f 149/9/7 150/4/7 151/1/7
f 149/9/7 152/10/7 150/4/7
f 153/11/8 154/8/8 155/5/8
f 156/3/8 157/2/8 158/12/8
f 159/3/9 160/9/9 161/1/9
f 162/11/9 163/5/9 164/7/9
f 165/12/10 166/4/10 167/10/10
f 165/12/10 168/2/10 166/4/10
f 197/1/2 198/2/2 199/3/2
f 197/1/2 200/4/2 198/2/2
f 201/5/1 202/6/1 203/7/1
f 201/5/1 204/8/1 202/6/1
f 205/9/7 206/4/7 207/1/7
f 205/9/7 208/10/7 206/4/7
f 209/11/8 210/8/8 211/5/8
f 212/3/8 213/2/8 214/12/8
f 215/3/9 216/9/9 217/1/9
f 218/11/9 219/5/9 220/7/9
f 221/12/10 222/4/10 223/10/10
f 221/12/10 224/2/10 222/4/10
usemtl material_3
f 169/1/8 170/2/8 171/3/8
f 169/1/8 172/4/8 170/2/8
f 173/5/7 174/6/7 175/7/7
f 173/5/7 176/8/7 174/6/7
f 177/9/2 178/4/2 179/1/2
f 177/9/2 180/10/2 178/4/2
f 181/11/1 182/8/1 183/5/1
f 184/3/1 185/2/1 186/12/1
f 187/3/9 188/9/9 189/1/9
f 190/11/9 191/5/9 192/7/9
f 193/12/10 194/4/10 195/10/10
f 193/12/10 196/2/10 194/4/10
usemtl material_0
f 225/1/11 226/2/11 227/3/11
f 225/1/11 228/4/11 226/2/11
f 229/5/12 230/6/12 231/7/12
f 229/5/12 232/8/12 230/6/12
f 233/9/13 234/4/13 235/1/13
f 233/9/13 236/10/13 234/4/13
f 237/11/14 238/8/14 239/5/14
f 240/3/14 241/2/14 242/12/14
f 243/3/1 244/9/1 245/1/1
f 246/11/1 247/5/1 248/7/1
f 249/12/2 250/4/2 251/10/2
f 249/12/2 252/2/2 250/4/2
f 253/1/11 254/2/11 255/3/11
f 253/1/11 256/4/11 254/2/11
f 257/5/12 258/6/12 259/7/12
f 257/5/12 260/8/12 258/6/12
f 261/9/13 262/4/13 263/1/13
f 261/9/13 264/10/13 262/4/13
f 265/11/14 266/8/14 267/5/14
f 268/3/14 269/2/14 270/12/14
f 271/3/1 272/9/1 273/1/1
f 274/11/1 275/5/1 276/7/1
f 277/12/2 278/4/2 279/10/2
f 277/12/2 280/2/2 278/4/2
f 281/1/11 282/2/11 283/3/11
f 281/1/11 284/4/11 282/2/11
f 285/5/12 286/6/12 287/7/12
f 285/5/12 288/8/12 286/6/12
f 289/9/13 290/4/13 291/1/13
f 289/9/13 292/10/13 290/4/13
f 293/11/14 294/8/14 295/5/14
f 296/3/14 297/2/14 298/12/14
f 299/3/1 300/9/1 301/1/1
f 302/11/1 303/5/1 304/7/1
f 305/12/2 306/4/2 307/10/2
f 305/12/2 308/2/2 306/4/2
