o Object_5
usemtl material_0
v 0.15764623489230828 0.23887113785900688 0.10001073550962704
v -0.0423537513241143 0.0388711283595166 0.10001077170885629
v -0.04235375132411438 0.23887113785900688 0.10001077127241144
v 0.1576462348923084 0.0388711283595166 0.10001073594607189
v -0.04235371556132998 0.23887113829545165 0.3000107574888341
v 0.1576462706550928 0.0388711287959614 0.3000107221624946
v 0.15764627065509268 0.23887113829545165 0.3000107217260497
v -0.0423537155613299 0.0388711287959614 0.300010757925279
v 0.15764627065509268 0.23887113829545165 0.3000107217260497
v 0.1576462348923084 0.0388711283595166 0.10001073594607189
v 0.15764623489230828 0.23887113785900688 0.10001073550962704
v 0.1576462706550928 0.0388711287959614 0.3000107221624946
v -0.04235375132411438 0.23887113785900688 0.10001077127241144
v -0.0423537155613299 0.0388711287959614 0.300010757925279
v -0.04235371556132998 0.23887113829545165 0.3000107574888341
v -0.04235375132411438 0.23887113785900688 0.10001077127241144
v -0.0423537513241143 0.0388711283595166 0.10001077170885629
v -0.0423537155613299 0.0388711287959614 0.300010757925279
v -0.04235375132411438 0.23887113785900688 0.10001077127241144
v 0.15764627065509268 0.23887113829545165 0.3000107217260497
v 0.15764623489230828 0.23887113785900688 0.10001073550962704
v -0.04235375132411438 0.23887113785900688 0.10001077127241144
v -0.04235371556132998 0.23887113829545165 0.3000107574888341
v 0.15764627065509268 0.23887113829545165 0.3000107217260497
v -0.0423537155613299 0.0388711287959614 0.300010757925279
v 0.1576462348923084 0.0388711283595166 0.10001073594607189
v 0.1576462706550928 0.0388711287959614 0.3000107221624946
v -0.0423537513241143 0.0388711283595166 0.10001077170885629
vt 0.2548113167285919 0.6536158323287964
vt 0.470013827085495 0.8606126308441162
vt 0.00011357665061950684 0.9998531341552734
vt 0.4926895797252655 0.6348362565040588
vt 0.629881739616394 0.24801777303218842
vt 0.3413945138454437 0.0059027522802352905
vt 0.7236183881759644 0.00016461312770843506
vt 0.4021161198616028 0.3833162188529968
vt 0.2224610298871994 0.32873937487602234
vt 0.4926895797252655 0.6348362565040588
vt 0.2548113167285919 0.6536158323287964
vt 0.667833685874939 0.47317737340927124
vt 0.8631176948547363 0.44368040561676025
vt 0.4021161198616028 0.3833162188529968
vt 0.629881739616394 0.24801777303218842
vt 0.00011357665061950684 0.9998531341552734
vt 0.470013827085495 0.8606126308441162
vt 0.8635450601577759 0.9786841869354248
vt 0.00011357665061950684 0.9998531341552734
vt 0.2224610298871994 0.32873937487602234
vt 0.2548113167285919 0.6536158323287964
vt 0.8631176948547363 0.44368040561676025
vt 0.629881739616394 0.24801777303218842
vt 0.7236183881759644 0.00016461312770843506
vt 0.8635450601577759 0.9786841869354248
vt 0.4926895797252655 0.6348362565040588
vt 0.667833685874939 0.47317737340927124
vt 0.470013827085495 0.8606126308441162
vn -1.7881393432617047e-7 -2.182224179136941e-9 -0.999999999999984
vn -1.7881393432617047e-7 -2.182224179136941e-9 -0.999999999999984
vn -1.7881393432617047e-7 -2.182224179136941e-9 -0.999999999999984
vn -1.7881393432617047e-7 -2.182224179136941e-9 -0.999999999999984
vn 1.7881393432617047e-7 2.182224179136941e-9 0.999999999999984
vn 1.7881393432617047e-7 2.182224179136941e-9 0.999999999999984
vn 1.7881393432617047e-7 2.182224179136941e-9 0.999999999999984
vn 1.7881393432617047e-7 2.182224179136941e-9 0.999999999999984
vn 0.999999999999984 3.646275667604744e-17 -1.7881393432617047e-7
vn 0.999999999999984 3.646275667604744e-17 -1.7881393432617047e-7
vn 0.999999999999984 3.646275667604744e-17 -1.7881393432617047e-7
vn 0.999999999999984 3.646275667604744e-17 -1.7881393432617047e-7
vn -0.999999999999984 -3.646275667604744e-17 1.7881393432617047e-7
vn -0.999999999999984 -3.646275667604744e-17 1.7881393432617047e-7
vn -0.999999999999984 -3.646275667604744e-17 1.7881393432617047e-7
vn -0.999999999999984 -3.646275667604744e-17 1.7881393432617047e-7
vn -0.999999999999984 -3.646275667604744e-17 1.7881393432617047e-7
vn -0.999999999999984 -3.646275667604744e-17 1.7881393432617047e-7
vn -4.266748477292214e-16 1 -2.1822241791369e-9
vn -4.266748477292214e-16 1 -2.1822241791369e-9
vn -4.266748477292214e-16 1 -2.1822241791369e-9
vn -4.266748477292214e-16 1 -2.1822241791369e-9
vn -4.266748477292214e-16 1 -2.1822241791369e-9
vn -4.266748477292214e-16 1 -2.1822241791369e-9
vn 4.266748477292214e-16 -1 2.1822241791369e-9
vn 4.266748477292214e-16 -1 2.1822241791369e-9
vn 4.266748477292214e-16 -1 2.1822241791369e-9
vn 4.266748477292214e-16 -1 2.1822241791369e-9
f 1/1/1 2/2/2 3/3/3
f 1/1/1 4/4/4 2/2/2
f 5/5/5 6/6/6 7/7/7
f 5/5/5 8/8/8 6/6/6
f 9/9/9 10/10/10 11/11/11
f 9/9/9 12/12/12 10/10/10
f 13/13/13 14/14/14 15/15/15
f 16/16/16 17/17/17 18/18/18
f 19/19/19 20/20/20 21/21/21
f 22/22/22 23/23/23 24/24/24
f 25/25/25 26/26/26 27/27/27
f 25/25/25 28/28/28 26/26/26
o Object_7
usemtl material_0
v -0.09564602766186041 0.21539729392685508 0.10001078021311062
v -0.295646013878283 0.015397284427364807 0.10001081641233987
v -0.2956460138782831 0.21539729392685508 0.10001081597589502
v -0.09564602766186033 0.015397284427364807 0.10001078064955547
v -0.2956459781154987 0.21539729436329985 0.3000108021923177
v -0.09564599189907592 0.015397284863809604 0.30001076686597816
v -0.09564599189907601 0.21539729436329985 0.3000107664295333
v -0.2956459781154986 0.015397284863809604 0.30001080262876256
v -0.09564599189907601 0.21539729436329985 0.3000107664295333
v -0.09564602766186033 0.015397284427364807 0.10001078064955547
v -0.09564602766186041 0.21539729392685508 0.10001078021311062
v -0.09564599189907592 0.015397284863809604 0.30001076686597816
v -0.2956460138782831 0.21539729392685508 0.10001081597589502
v -0.2956459781154986 0.015397284863809604 0.30001080262876256
v -0.2956459781154987 0.21539729436329985 0.3000108021923177
v -0.2956460138782831 0.21539729392685508 0.10001081597589502
v -0.295646013878283 0.015397284427364807 0.10001081641233987
v -0.2956459781154986 0.015397284863809604 0.30001080262876256
v -0.2956460138782831 0.21539729392685508 0.10001081597589502
v -0.09564599189907601 0.21539729436329985 0.3000107664295333
v -0.09564602766186041 0.21539729392685508 0.10001078021311062
v -0.2956460138782831 0.21539729392685508 0.10001081597589502
v -0.2956459781154987 0.21539729436329985 0.3000108021923177
v -0.09564599189907601 0.21539729436329985 0.3000107664295333
v -0.2956459781154986 0.015397284863809604 0.30001080262876256
v -0.09564602766186033 0.015397284427364807 0.10001078064955547
v -0.09564599189907592 0.015397284863809604 0.30001076686597816
v -0.295646013878283 0.015397284427364807 0.10001081641233987
vt 0.2548113167285919 0.6536158323287964
vt 0.470013827085495 0.8606126308441162
vt 0.00011357665061950684 0.9998531341552734
vt 0.4926895797252655 0.6348362565040588
vt 0.629881739616394 0.24801777303218842
vt 0.3413945138454437 0.0059027522802352905
vt 0.7236183881759644 0.00016461312770843506
vt 0.4021161198616028 0.3833162188529968
vt 0.2224610298871994 0.32873937487602234
vt 0.4926895797252655 0.6348362565040588
vt 0.2548113167285919 0.6536158323287964
vt 0.667833685874939 0.47317737340927124
vt 0.8631176948547363 0.44368040561676025
vt 0.4021161198616028 0.3833162188529968
vt 0.629881739616394 0.24801777303218842
vt 0.00011357665061950684 0.9998531341552734
vt 0.470013827085495 0.8606126308441162
vt 0.8635450601577759 0.9786841869354248
vt 0.00011357665061950684 0.9998531341552734
vt 0.2224610298871994 0.32873937487602234
vt 0.2548113167285919 0.6536158323287964
vt 0.8631176948547363 0.44368040561676025
vt 0.629881739616394 0.24801777303218842
vt 0.7236183881759644 0.00016461312770843506
vt 0.8635450601577759 0.9786841869354248
vt 0.4926895797252655 0.6348362565040588
vt 0.667833685874939 0.47317737340927124
vt 0.470013827085495 0.8606126308441162
vn -1.7881393432617047e-7 -2.182224179136941e-9 -0.999999999999984
vn -1.7881393432617047e-7 -2.182224179136941e-9 -0.999999999999984
vn -1.7881393432617047e-7 -2.182224179136941e-9 -0.999999999999984
vn -1.7881393432617047e-7 -2.182224179136941e-9 -0.999999999999984
vn 1.7881393432617047e-7 2.182224179136941e-9 0.999999999999984
vn 1.7881393432617047e-7 2.182224179136941e-9 0.999999999999984
vn 1.7881393432617047e-7 2.182224179136941e-9 0.999999999999984
vn 1.7881393432617047e-7 2.182224179136941e-9 0.999999999999984
vn 0.999999999999984 3.646275667604744e-17 -1.7881393432617047e-7
vn 0.999999999999984 3.646275667604744e-17 -1.7881393432617047e-7
vn 0.999999999999984 3.646275667604744e-17 -1.7881393432617047e-7
vn 0.999999999999984 3.646275667604744e-17 -1.7881393432617047e-7
vn -0.999999999999984 -3.646275667604744e-17 1.7881393432617047e-7
vn -0.999999999999984 -3.646275667604744e-17 1.7881393432617047e-7
vn -0.999999999999984 -3.646275667604744e-17 1.7881393432617047e-7
vn -0.999999999999984 -3.646275667604744e-17 1.7881393432617047e-7
vn -0.999999999999984 -3.646275667604744e-17 1.7881393432617047e-7
vn -0.999999999999984 -3.646275667604744e-17 1.7881393432617047e-7
vn -4.266748477292214e-16 1 -2.1822241791369e-9
vn -4.266748477292214e-16 1 -2.1822241791369e-9
vn -4.266748477292214e-16 1 -2.1822241791369e-9
vn -4.266748477292214e-16 1 -2.1822241791369e-9
vn -4.266748477292214e-16 1 -2.1822241791369e-9
vn -4.266748477292214e-16 1 -2.1822241791369e-9
vn 4.266748477292214e-16 -1 2.1822241791369e-9
vn 4.266748477292214e-16 -1 2.1822241791369e-9
vn 4.266748477292214e-16 -1 2.1822241791369e-9
vn 4.266748477292214e-16 -1 2.1822241791369e-9
f 29/29/29 30/30/30 31/31/31
f 29/29/29 32/32/32 30/30/30
f 33/33/33 34/34/34 35/35/35
f 33/33/33 36/36/36 34/34/34
f 37/37/37 38/38/38 39/39/39
f 37/37/37 40/40/40 38/38/38
f 41/41/41 42/42/42 43/43/43
f 44/44/44 45/45/45 46/46/46
f 47/47/47 48/48/48 49/49/49
f 50/50/50 51/51/51 52/52/52
f 53/53/53 54/54/54 55/55/55
f 53/53/53 56/56/56 54/54/54
o Object_9
usemtl material_0
v 0.41977674867957787 0.21343923664249992 0.10001069080614346
v 0.2197767624631553 0.013439227143009644 0.10001072700537271
v 0.2197767624631552 0.21343923664249992 0.10001072656892786
v 0.419776748679578 0.013439227143009644 0.10001069124258831
v 0.2197767982259396 0.2134392370789447 0.3000107127853505
v 0.4197767844423624 0.01343922757945444 0.300010677459011
v 0.41977678444236227 0.2134392370789447 0.3000106770225661
v 0.2197767982259397 0.01343922757945444 0.3000107132217954
v 0.41977678444236227 0.2134392370789447 0.3000106770225661
v 0.419776748679578 0.013439227143009644 0.10001069124258831
v 0.41977674867957787 0.21343923664249992 0.10001069080614346
v 0.4197767844423624 0.01343922757945444 0.300010677459011
v 0.2197767624631552 0.21343923664249992 0.10001072656892786
v 0.2197767982259397 0.01343922757945444 0.3000107132217954
v 0.2197767982259396 0.2134392370789447 0.3000107127853505
v 0.2197767624631552 0.21343923664249992 0.10001072656892786
v 0.2197767624631553 0.013439227143009644 0.10001072700537271
v 0.2197767982259397 0.01343922757945444 0.3000107132217954
v 0.2197767624631552 0.21343923664249992 0.10001072656892786
v 0.41977678444236227 0.2134392370789447 0.3000106770225661
v 0.41977674867957787 0.21343923664249992 0.10001069080614346
v 0.2197767624631552 0.21343923664249992 0.10001072656892786
v 0.2197767982259396 0.2134392370789447 0.3000107127853505
v 0.41977678444236227 0.2134392370789447 0.3000106770225661
v 0.2197767982259397 0.01343922757945444 0.3000107132217954
v 0.419776748679578 0.013439227143009644 0.10001069124258831
v 0.4197767844423624 0.01343922757945444 0.300010677459011
v 0.2197767624631553 0.013439227143009644 0.10001072700537271
vt 0.2548113167285919 0.6536158323287964
vt 0.470013827085495 0.8606126308441162
vt 0.00011357665061950684 0.9998531341552734
vt 0.4926895797252655 0.6348362565040588
vt 0.629881739616394 0.24801777303218842
vt 0.3413945138454437 0.0059027522802352905
vt 0.7236183881759644 0.00016461312770843506
vt 0.4021161198616028 0.3833162188529968
vt 0.2224610298871994 0.32873937487602234
vt 0.4926895797252655 0.6348362565040588
vt 0.2548113167285919 0.6536158323287964
vt 0.667833685874939 0.47317737340927124
vt 0.8631176948547363 0.44368040561676025
vt 0.4021161198616028 0.3833162188529968
vt 0.629881739616394 0.24801777303218842
vt 0.00011357665061950684 0.9998531341552734
vt 0.470013827085495 0.8606126308441162
vt 0.8635450601577759 0.9786841869354248
vt 0.00011357665061950684 0.9998531341552734
vt 0.2224610298871994 0.32873937487602234
vt 0.2548113167285919 0.6536158323287964
vt 0.8631176948547363 0.44368040561676025
vt 0.629881739616394 0.24801777303218842
vt 0.7236183881759644 0.00016461312770843506
vt 0.8635450601577759 0.9786841869354248
vt 0.4926895797252655 0.6348362565040588
vt 0.667833685874939 0.47317737340927124
vt 0.470013827085495 0.8606126308441162
vn -1.7881393432617047e-7 -2.182224179136941e-9 -0.999999999999984
vn -1.7881393432617047e-7 -2.182224179136941e-9 -0.999999999999984
vn -1.7881393432617047e-7 -2.182224179136941e-9 -0.999999999999984
vn -1.7881393432617047e-7 -2.182224179136941e-9 -0.999999999999984
vn 1.7881393432617047e-7 2.182224179136941e-9 0.999999999999984
vn 1.7881393432617047e-7 2.182224179136941e-9 0.999999999999984
vn 1.7881393432617047e-7 2.182224179136941e-9 0.999999999999984
vn 1.7881393432617047e-7 2.182224179136941e-9 0.999999999999984
vn 0.999999999999984 3.646275667604744e-17 -1.7881393432617047e-7
vn 0.999999999999984 3.646275667604744e-17 -1.7881393432617047e-7
vn 0.999999999999984 3.646275667604744e-17 -1.7881393432617047e-7
vn 0.999999999999984 3.646275667604744e-17 -1.7881393432617047e-7
vn -0.999999999999984 -3.646275667604744e-17 1.7881393432617047e-7
vn -0.999999999999984 -3.646275667604744e-17 1.7881393432617047e-7
vn -0.999999999999984 -3.646275667604744e-17 1.7881393432617047e-7
vn -0.999999999999984 -3.646275667604744e-17 1.7881393432617047e-7
vn -0.999999999999984 -3.646275667604744e-17 1.7881393432617047e-7
vn -0.999999999999984 -3.646275667604744e-17 1.7881393432617047e-7
vn -4.266748477292214e-16 1 -2.1822241791369e-9
vn -4.266748477292214e-16 1 -2.1822241791369e-9
vn -4.266748477292214e-16 1 -2.1822241791369e-9
vn -4.266748477292214e-16 1 -2.1822241791369e-9
vn -4.266748477292214e-16 1 -2.1822241791369e-9
vn -4.266748477292214e-16 1 -2.1822241791369e-9
vn 4.266748477292214e-16 -1 2.1822241791369e-9
vn 4.266748477292214e-16 -1 2.1822241791369e-9
vn 4.266748477292214e-16 -1 2.1822241791369e-9
vn 4.266748477292214e-16 -1 2.1822241791369e-9
f 57/57/57 58/58/58 59/59/59
f 57/57/57 60/60/60 58/58/58
f 61/61/61 62/62/62 63/63/63
f 61/61/61 64/64/64 62/62/62
f 65/65/65 66/66/66 67/67/67
f 65/65/65 68/68/68 66/66/66
f 69/69/69 70/70/70 71/71/71
f 72/72/72 73/73/73 74/74/74
f 75/75/75 76/76/76 77/77/77
f 78/78/78 79/79/79 80/80/80
f 81/81/81 82/82/82 83/83/83
f 81/81/81 84/84/84 82/82/82
o Object_12
usemtl material_1
v 0.37654958541131456 0.07352485958226851 0.20198347858147628
v -0.25301045144592493 0.07352484688553293 0.1527177030859448
v -0.23971343821004987 0.0735248609355445 0.2711654987367153
v 0.3632525721754395 0.07352484553225697 0.08353568293070575
v -0.23971343731540073 -0.005718325964290498 0.2711655082561992
v 0.3632525730700886 -0.005718341367578032 0.08353569245018959
v 0.3765495863059637 -0.005718327317566475 0.20198348810096012
v -0.2530104505512758 -0.005718340014302055 0.15271771260542863
v 0.3765495863059637 -0.005718327317566475 0.20198348810096012
v 0.3632525721754395 0.07352484553225697 0.08353568293070575
v 0.37654958541131456 0.07352485958226851 0.20198347858147628
v 0.3632525730700886 -0.005718341367578032 0.08353569245018959
v -0.23971343821004987 0.0735248609355445 0.2711654987367153
v -0.2530104505512758 -0.005718340014302055 0.15271771260542863
v -0.23971343731540073 -0.005718325964290498 0.2711655082561992
v -0.23971343821004987 0.0735248609355445 0.2711654987367153
v -0.25301045144592493 0.07352484688553293 0.1527177030859448
v -0.2530104505512758 -0.005718340014302055 0.15271771260542863
v -0.23971343821004987 0.0735248609355445 0.2711654987367153
v 0.3765495863059637 -0.005718327317566475 0.20198348810096012
v 0.37654958541131456 0.07352485958226851 0.20198347858147628
v -0.23971343821004987 0.0735248609355445 0.2711654987367153
v -0.23971343731540073 -0.005718325964290498 0.2711655082561992
v 0.3765495863059637 -0.005718327317566475 0.20198348810096012
v -0.2530104505512758 -0.005718340014302055 0.15271771260542863
v 0.3632525721754395 0.07352484553225697 0.08353568293070575
v 0.3632525730700886 -0.005718341367578032 0.08353569245018959
v -0.25301045144592493 0.07352484688553293 0.1527177030859448
vt 0.2548113167285919 0.6536158323287964
vt 0.470013827085495 0.8606126308441162
vt 0.00011357665061950684 0.9998531341552734
vt 0.4926895797252655 0.6348362565040588
vt 0.629881739616394 0.24801777303218842
vt 0.3413945138454437 0.0059027522802352905
vt 0.7236183881759644 0.00016461312770843506
vt 0.4021161198616028 0.3833162188529968
vt 0.2224610298871994 0.32873937487602234
vt 0.4926895797252655 0.6348362565040588
vt 0.2548113167285919 0.6536158323287964
vt 0.667833685874939 0.47317737340927124
vt 0.8631176948547363 0.44368040561676025
vt 0.4021161198616028 0.3833162188529968
vt 0.629881739616394 0.24801777303218842
vt 0.00011357665061950684 0.9998531341552734
vt 0.470013827085495 0.8606126308441162
vt 0.8635450601577759 0.9786841869354248
vt 0.00011357665061950684 0.9998531341552734
vt 0.2224610298871994 0.32873937487602234
vt 0.2548113167285919 0.6536158323287964
vt 0.8631176948547363 0.44368040561676025
vt 0.629881739616394 0.24801777303218842
vt 0.7236183881759644 0.00016461312770843506
vt 0.8635450601577759 0.9786841869354248
vt 0.4926895797252655 0.6348362565040588
vt 0.667833685874939 0.47317737340927124
vt 0.470013827085495 0.8606126308441162
vn -1.0981757478749072e-8 0.9999999999999929 -1.1738493660216297e-7
vn -1.0981757478749072e-8 0.9999999999999929 -1.1738493660216297e-7
vn -1.0981757478749072e-8 0.9999999999999929 -1.1738493660216297e-7
vn -1.0981757478749072e-8 0.9999999999999929 -1.1738493660216297e-7
vn 1.0981757478749072e-8 -0.9999999999999929 1.1738493660216297e-7
vn 1.0981757478749072e-8 -0.9999999999999929 1.1738493660216297e-7
vn 1.0981757478749072e-8 -0.9999999999999929 1.1738493660216297e-7
vn 1.0981757478749072e-8 -0.9999999999999929 1.1738493660216297e-7
vn 0.9937577251221672 -2.1822311907155885e-9 -0.11155977662228903
vn 0.9937577251221672 -2.1822311907155885e-9 -0.11155977662228903
vn 0.9937577251221672 -2.1822311907155885e-9 -0.11155977662228903
vn 0.9937577251221672 -2.1822311907155885e-9 -0.11155977662228903
vn -0.9937577251221672 2.1822311907155885e-9 0.11155977662228903
vn -0.9937577251221672 2.1822311907155885e-9 0.11155977662228903
vn -0.9937577251221672 2.1822311907155885e-9 0.11155977662228903
vn -0.9937577251221672 2.1822311907155885e-9 0.11155977662228903
vn -0.9937577251221672 2.1822311907155885e-9 0.11155977662228903
vn -0.9937577251221672 2.1822311907155885e-9 0.11155977662228903
vn 0.11155977936743211 1.206396139015645e-7 0.9937577248139887
vn 0.11155977936743211 1.206396139015645e-7 0.9937577248139887
vn 0.11155977936743211 1.206396139015645e-7 0.9937577248139887
vn 0.11155977936743211 1.206396139015645e-7 0.9937577248139887
vn 0.11155977936743211 1.206396139015645e-7 0.9937577248139887
vn 0.11155977936743211 1.206396139015645e-7 0.9937577248139887
vn -0.11155977936743211 -1.206396139015645e-7 -0.9937577248139887
vn -0.11155977936743211 -1.206396139015645e-7 -0.9937577248139887
vn -0.11155977936743211 -1.206396139015645e-7 -0.9937577248139887
vn -0.11155977936743211 -1.206396139015645e-7 -0.9937577248139887
f 85/85/85 86/86/86 87/87/87
f 85/85/85 88/88/88 86/86/86
f 89/89/89 90/90/90 91/91/91
f 89/89/89 92/92/92 90/90/90
f 93/93/93 94/94/94 95/95/95
f 93/93/93 96/96/96 94/94/94
f 97/97/97 98/98/98 99/99/99
f 100/100/100 101/101/101 102/102/102
f 103/103/103 104/104/104 105/105/105
f 106/106/106 107/107/107 108/108/108
f 109/109/109 110/110/110 111/111/111
f 109/109/109 112/112/112 110/110/110
o Object_16
usemtl material_2
v 0.04823920771186489 -0.20826817244426676 0.14907490898876485
v -0.13125161274749514 -0.20826820330750745 0.20436102161500688
v -0.12855764376683831 -0.20826820510256358 0.15493146705103317
v 0.04554523873120807 -0.20826817064921063 0.1985044635527386
v -0.12855765569001698 -0.14822780579884845 0.1549314700371967
v 0.0455452268080294 -0.1482277713454955 0.19850446653890214
v 0.048239195788686226 -0.14822777314055163 0.14907491197492842
v -0.1312516246706738 -0.14822780400379232 0.20436102460117045
v 0.048239195788686226 -0.14822777314055163 0.14907491197492842
v 0.04554523873120807 -0.20826817064921063 0.1985044635527386
v 0.04823920771186489 -0.20826817244426676 0.14907490898876485
v 0.0455452268080294 -0.1482277713454955 0.19850446653890214
v -0.12855764376683831 -0.20826820510256358 0.15493146705103317
v -0.1312516246706738 -0.14822780400379232 0.20436102460117045
v -0.12855765569001698 -0.14822780579884845 0.1549314700371967
v -0.12855764376683831 -0.20826820510256358 0.15493146705103317
v -0.13125161274749514 -0.20826820330750745 0.20436102161500688
v -0.1312516246706738 -0.14822780400379232 0.20436102460117045
v -0.12855764376683831 -0.20826820510256358 0.15493146705103317
v 0.048239195788686226 -0.14822777314055163 0.14907491197492842
v 0.04823920771186489 -0.20826817244426676 0.14907490898876485
v -0.12855764376683831 -0.20826820510256358 0.15493146705103317
v -0.12855765569001698 -0.14822780579884845 0.1549314700371967
v 0.048239195788686226 -0.14822777314055163 0.14907491197492842
v -0.1312516246706738 -0.14822780400379232 0.20436102460117045
v 0.04554523873120807 -0.20826817064921063 0.1985044635527386
v 0.0455452268080294 -0.1482277713454955 0.19850446653890214
v -0.13125161274749514 -0.20826820330750745 0.20436102161500688
vt 0.2548113167285919 0.6536158323287964
vt 0.470013827085495 0.8606126308441162
vt 0.00011357665061950684 0.9998531341552734
vt 0.4926895797252655 0.6348362565040588
vt 0.629881739616394 0.24801777303218842
vt 0.3413945138454437 0.0059027522802352905
vt 0.7236183881759644 0.00016461312770843506
vt 0.4021161198616028 0.3833162188529968
vt 0.2224610298871994 0.32873937487602234
vt 0.4926895797252655 0.6348362565040588
vt 0.2548113167285919 0.6536158323287964
vt 0.667833685874939 0.47317737340927124
vt 0.8631176948547363 0.44368040561676025
vt 0.4021161198616028 0.3833162188529968
vt 0.629881739616394 0.24801777303218842
vt 0.00011357665061950684 0.9998531341552734
vt 0.470013827085495 0.8606126308441162
vt 0.8635450601577759 0.9786841869354248
vt 0.00011357665061950684 0.9998531341552734
vt 0.2224610298871994 0.32873937487602234
vt 0.2548113167285919 0.6536158323287964
vt 0.8631176948547363 0.44368040561676025
vt 0.629881739616394 0.24801777303218842
vt 0.7236183881759644 0.00016461312770843506
vt 0.8635450601577759 0.9786841869354248
vt 0.4926895797252655 0.6348362565040588
vt 0.667833685874939 0.47317737340927124
vt 0.470013827085495 0.8606126308441162
vn 1.8626142204299915e-7 -0.9999999999999816 4.646690948094501e-8
vn 1.8626142204299915e-7 -0.9999999999999816 4.646690948094501e-8
vn 1.8626142204299915e-7 -0.9999999999999816 4.646690948094501e-8
vn 1.8626142204299915e-7 -0.9999999999999816 4.646690948094501e-8
vn -1.8626142204299915e-7 0.9999999999999816 -4.646690948094501e-8
vn -1.8626142204299915e-7 0.9999999999999816 -4.646690948094501e-8
vn -1.8626142204299915e-7 0.9999999999999816 -4.646690948094501e-8
vn -1.8626142204299915e-7 0.9999999999999816 -4.646690948094501e-8
vn 0.9985181112782077 1.9558500124442358e-7 0.054420413902895204
vn 0.9985181112782077 1.9558500124442358e-7 0.054420413902895204
vn 0.9985181112782077 1.9558500124442358e-7 0.054420413902895204
vn 0.9985181112782077 1.9558500124442358e-7 0.054420413902895204
vn -0.9985181112782077 -1.9558500124442358e-7 -0.054420413902895204
vn -0.9985181112782077 -1.9558500124442358e-7 -0.054420413902895204
vn -0.9985181112782077 -1.9558500124442358e-7 -0.054420413902895204
vn -0.9985181112782077 -1.9558500124442358e-7 -0.054420413902895204
vn -0.9985181112782077 -1.9558500124442358e-7 -0.054420413902895204
vn -0.9985181112782077 -1.9558500124442358e-7 -0.054420413902895204
vn -0.033107758296208656 4.313390337606382e-8 -0.9994517879020467
vn -0.033107758296208656 4.313390337606382e-8 -0.9994517879020467
vn -0.033107758296208656 4.313390337606382e-8 -0.9994517879020467
vn -0.033107758296208656 4.313390337606382e-8 -0.9994517879020467
vn -0.033107758296208656 4.313390337606382e-8 -0.9994517879020467
vn -0.033107758296208656 4.313390337606382e-8 -0.9994517879020467
vn 0.033107758296208656 -4.313390337606382e-8 0.9994517879020467
vn 0.033107758296208656 -4.313390337606382e-8 0.9994517879020467
vn 0.033107758296208656 -4.313390337606382e-8 0.9994517879020467
vn 0.033107758296208656 -4.313390337606382e-8 0.9994517879020467
f 113/113/113 114/114/114 115/115/115
f 113/113/113 116/116/116 114/114/114
f 117/117/117 118/118/118 119/119/119
f 117/117/117 120/120/120 118/118/118
f 121/121/121 122/122/122 123/123/123
f 121/121/121 124/124/124 122/122/122
f 125/125/125 126/126/126 127/127/127
f 128/128/128 129/129/129 130/130/130
f 131/131/131 132/132/132 133/133/133
f 134/134/134 135/135/135 136/136/136
f 137/137/137 138/138/138 139/139/139
f 137/137/137 140/140/140 138/138/138
o Object_20
usemtl material_2
v 0.046270887252737466 -0.13797018617526957 0.14914010156898794
v -0.13321993320662256 -0.13797021703851026 0.20442621419522997
v -0.13052596422596574 -0.1379702188335664 0.15499665963125625
v 0.04357691827208064 -0.13797018438021344 0.19856965613296168
v -0.1305259761491444 -0.07792981952985126 0.1549966626174198
v 0.043576906348901975 -0.07792978507649831 0.19856965911912522
v 0.0462708753295588 -0.07792978687155444 0.1491401045551515
v -0.13321994512980123 -0.07792981773479513 0.20442621718139353
v 0.0462708753295588 -0.07792978687155444 0.1491401045551515
v 0.04357691827208064 -0.13797018438021344 0.19856965613296168
v 0.046270887252737466 -0.13797018617526957 0.14914010156898794
v 0.043576906348901975 -0.07792978507649831 0.19856965911912522
v -0.13052596422596574 -0.1379702188335664 0.15499665963125625
v -0.13321994512980123 -0.07792981773479513 0.20442621718139353
v -0.1305259761491444 -0.07792981952985126 0.1549966626174198
v -0.13052596422596574 -0.1379702188335664 0.15499665963125625
v -0.13321993320662256 -0.13797021703851026 0.20442621419522997
v -0.13321994512980123 -0.07792981773479513 0.20442621718139353
v -0.13052596422596574 -0.1379702188335664 0.15499665963125625
v 0.0462708753295588 -0.07792978687155444 0.1491401045551515
v 0.046270887252737466 -0.13797018617526957 0.14914010156898794
v -0.13052596422596574 -0.1379702188335664 0.15499665963125625
v -0.1305259761491444 -0.07792981952985126 0.1549966626174198
v 0.0462708753295588 -0.07792978687155444 0.1491401045551515
v -0.13321994512980123 -0.07792981773479513 0.20442621718139353
v 0.04357691827208064 -0.13797018438021344 0.19856965613296168
v 0.043576906348901975 -0.07792978507649831 0.19856965911912522
v -0.13321993320662256 -0.13797021703851026 0.20442621419522997
vt 0.2548113167285919 0.6536158323287964
vt 0.470013827085495 0.8606126308441162
vt 0.00011357665061950684 0.9998531341552734
vt 0.4926895797252655 0.6348362565040588
vt 0.629881739616394 0.24801777303218842
vt 0.3413945138454437 0.0059027522802352905
vt 0.7236183881759644 0.00016461312770843506
vt 0.4021161198616028 0.3833162188529968
vt 0.2224610298871994 0.32873937487602234
vt 0.4926895797252655 0.6348362565040588
vt 0.2548113167285919 0.6536158323287964
vt 0.667833685874939 0.47317737340927124
vt 0.8631176948547363 0.44368040561676025
vt 0.4021161198616028 0.3833162188529968
vt 0.629881739616394 0.24801777303218842
vt 0.00011357665061950684 0.9998531341552734
vt 0.470013827085495 0.8606126308441162
vt 0.8635450601577759 0.9786841869354248
vt 0.00011357665061950684 0.9998531341552734
vt 0.2224610298871994 0.32873937487602234
vt 0.2548113167285919 0.6536158323287964
vt 0.8631176948547363 0.44368040561676025
vt 0.629881739616394 0.24801777303218842
vt 0.7236183881759644 0.00016461312770843506
vt 0.8635450601577759 0.9786841869354248
vt 0.4926895797252655 0.6348362565040588
vt 0.667833685874939 0.47317737340927124
vt 0.470013827085495 0.8606126308441162
vn 1.8626142204299915e-7 -0.9999999999999816 4.646690948094501e-8
vn 1.8626142204299915e-7 -0.9999999999999816 4.646690948094501e-8
vn 1.8626142204299915e-7 -0.9999999999999816 4.646690948094501e-8
vn 1.8626142204299915e-7 -0.9999999999999816 4.646690948094501e-8
vn -1.8626142204299915e-7 0.9999999999999816 -4.646690948094501e-8
vn -1.8626142204299915e-7 0.9999999999999816 -4.646690948094501e-8
vn -1.8626142204299915e-7 0.9999999999999816 -4.646690948094501e-8
vn -1.8626142204299915e-7 0.9999999999999816 -4.646690948094501e-8
vn 0.9985181112782077 1.9558500124442358e-7 0.054420413902895204
vn 0.9985181112782077 1.9558500124442358e-7 0.054420413902895204
vn 0.9985181112782077 1.9558500124442358e-7 0.054420413902895204
vn 0.9985181112782077 1.9558500124442358e-7 0.054420413902895204
vn -0.9985181112782077 -1.9558500124442358e-7 -0.054420413902895204
vn -0.9985181112782077 -1.9558500124442358e-7 -0.054420413902895204
vn -0.9985181112782077 -1.9558500124442358e-7 -0.054420413902895204
vn -0.9985181112782077 -1.9558500124442358e-7 -0.054420413902895204
vn -0.9985181112782077 -1.9558500124442358e-7 -0.054420413902895204
vn -0.9985181112782077 -1.9558500124442358e-7 -0.054420413902895204
vn -0.033107758296208656 4.313390337606382e-8 -0.9994517879020467
vn -0.033107758296208656 4.313390337606382e-8 -0.9994517879020467
vn -0.033107758296208656 4.313390337606382e-8 -0.9994517879020467
vn -0.033107758296208656 4.313390337606382e-8 -0.9994517879020467
vn -0.033107758296208656 4.313390337606382e-8 -0.9994517879020467
vn -0.033107758296208656 4.313390337606382e-8 -0.9994517879020467
vn 0.033107758296208656 -4.313390337606382e-8 0.9994517879020467
vn 0.033107758296208656 -4.313390337606382e-8 0.9994517879020467
vn 0.033107758296208656 -4.313390337606382e-8 0.9994517879020467
vn 0.033107758296208656 -4.313390337606382e-8 0.9994517879020467
f 141/141/141 142/142/142 143/143/143
f 141/141/141 144/144/144 142/142/142
f 145/145/145 146/146/146 147/147/147
f 145/145/145 148/148/148 146/146/146
f 149/149/149 150/150/150 151/151/151
f 149/149/149 152/152/152 150/150/150
f 153/153/153 154/154/154 155/155/155
f 156/156/156 157/157/157 158/158/158
f 159/159/159 160/160/160 161/161/161
f 162/162/162 163/163/163 164/164/164
f 165/165/165 166/166/166 167/167/167
f 165/165/165 168/168/168 166/166/166
o Object_24
usemtl material_2
v 0.043339359459330026 -0.0647964695109553 0.14923725713997182
v -0.13615146100003 -0.06479650037419599 0.20452336976621385
v -0.13345749201937318 -0.06479650216925212 0.15509381520224014
v 0.0406453904786732 -0.06479646771589917 0.19866681170394557
v -0.13345750394255185 -0.004756102865536994 0.15509381818840368
v 0.040645378555494535 -0.004756068412184032 0.1986668146901091
v 0.04333934753615136 -0.0047560702072401775 0.1492372601261354
v -0.13615147292320867 -0.004756101070480849 0.20452337275237742
v 0.04333934753615136 -0.0047560702072401775 0.1492372601261354
v 0.0406453904786732 -0.06479646771589917 0.19866681170394557
v 0.043339359459330026 -0.0647964695109553 0.14923725713997182
v 0.040645378555494535 -0.004756068412184032 0.1986668146901091
v -0.13345749201937318 -0.06479650216925212 0.15509381520224014
v -0.13615147292320867 -0.004756101070480849 0.20452337275237742
v -0.13345750394255185 -0.004756102865536994 0.15509381818840368
v -0.13345749201937318 -0.06479650216925212 0.15509381520224014
v -0.13615146100003 -0.06479650037419599 0.20452336976621385
v -0.13615147292320867 -0.004756101070480849 0.20452337275237742
v -0.13345749201937318 -0.06479650216925212 0.15509381520224014
v 0.04333934753615136 -0.0047560702072401775 0.1492372601261354
v 0.043339359459330026 -0.0647964695109553 0.14923725713997182
v -0.13345749201937318 -0.06479650216925212 0.15509381520224014
v -0.13345750394255185 -0.004756102865536994 0.15509381818840368
v 0.04333934753615136 -0.0047560702072401775 0.1492372601261354
v -0.13615147292320867 -0.004756101070480849 0.20452337275237742
v 0.0406453904786732 -0.06479646771589917 0.19866681170394557
v 0.040645378555494535 -0.004756068412184032 0.1986668146901091
v -0.13615146100003 -0.06479650037419599 0.20452336976621385
vt 0.2548113167285919 0.6536158323287964
vt 0.470013827085495 0.8606126308441162
vt 0.00011357665061950684 0.9998531341552734
vt 0.4926895797252655 0.6348362565040588
vt 0.629881739616394 0.24801777303218842
vt 0.3413945138454437 0.0059027522802352905
vt 0.7236183881759644 0.00016461312770843506
vt 0.4021161198616028 0.3833162188529968
vt 0.2224610298871994 0.32873937487602234
vt 0.4926895797252655 0.6348362565040588
vt 0.2548113167285919 0.6536158323287964
vt 0.667833685874939 0.47317737340927124
vt 0.8631176948547363 0.44368040561676025
vt 0.4021161198616028 0.3833162188529968
vt 0.629881739616394 0.24801777303218842
vt 0.00011357665061950684 0.9998531341552734
vt 0.470013827085495 0.8606126308441162
vt 0.8635450601577759 0.9786841869354248
vt 0.00011357665061950684 0.9998531341552734
vt 0.2224610298871994 0.32873937487602234
vt 0.2548113167285919 0.6536158323287964
vt 0.8631176948547363 0.44368040561676025
vt 0.629881739616394 0.24801777303218842
vt 0.7236183881759644 0.00016461312770843506
vt 0.8635450601577759 0.9786841869354248
vt 0.4926895797252655 0.6348362565040588
vt 0.667833685874939 0.47317737340927124
vt 0.470013827085495 0.8606126308441162
vn 1.8626142204299915e-7 -0.9999999999999816 4.646690948094501e-8
vn 1.8626142204299915e-7 -0.9999999999999816 4.646690948094501e-8
vn 1.8626142204299915e-7 -0.9999999999999816 4.646690948094501e-8
vn 1.8626142204299915e-7 -0.9999999999999816 4.646690948094501e-8
vn -1.8626142204299915e-7 0.9999999999999816 -4.646690948094501e-8
vn -1.8626142204299915e-7 0.9999999999999816 -4.646690948094501e-8
vn -1.8626142204299915e-7 0.9999999999999816 -4.646690948094501e-8
vn -1.8626142204299915e-7 0.9999999999999816 -4.646690948094501e-8
vn 0.9985181112782077 1.9558500124442358e-7 0.054420413902895204
vn 0.9985181112782077 1.9558500124442358e-7 0.054420413902895204
vn 0.9985181112782077 1.9558500124442358e-7 0.054420413902895204
vn 0.9985181112782077 1.9558500124442358e-7 0.054420413902895204
vn -0.9985181112782077 -1.9558500124442358e-7 -0.054420413902895204
vn -0.9985181112782077 -1.9558500124442358e-7 -0.054420413902895204
vn -0.9985181112782077 -1.9558500124442358e-7 -0.054420413902895204
vn -0.9985181112782077 -1.9558500124442358e-7 -0.054420413902895204
vn -0.9985181112782077 -1.9558500124442358e-7 -0.054420413902895204
vn -0.9985181112782077 -1.9558500124442358e-7 -0.054420413902895204
vn -0.033107758296208656 4.313390337606382e-8 -0.9994517879020467
vn -0.033107758296208656 4.313390337606382e-8 -0.9994517879020467
vn -0.033107758296208656 4.313390337606382e-8 -0.9994517879020467
vn -0.033107758296208656 4.313390337606382e-8 -0.9994517879020467
vn -0.033107758296208656 4.313390337606382e-8 -0.9994517879020467
vn -0.033107758296208656 4.313390337606382e-8 -0.9994517879020467
vn 0.033107758296208656 -4.313390337606382e-8 0.9994517879020467
vn 0.033107758296208656 -4.313390337606382e-8 0.9994517879020467
vn 0.033107758296208656 -4.313390337606382e-8 0.9994517879020467
vn 0.033107758296208656 -4.313390337606382e-8 0.9994517879020467
f 169/169/169 170/170/170 171/171/171
f 169/169/169 172/172/172 170/170/170
f 173/173/173 174/174/174 175/175/175
f 173/173/173 176/176/176 174/174/174
f 177/177/177 178/178/178 179/179/179
f 177/177/177 180/180/180 178/178/178
f 181/181/181 182/182/182 183/183/183
f 184/184/184 185/185/185 186/186/186
f 187/187/187 188/188/188 189/189/189
f 190/190/190 191/191/191 192/192/192
f 193/193/193 194/194/194 195/195/195
f 193/193/193 196/196/196 194/194/194
o Object_28
usemtl material_2
v 0.25204173539744507 -0.13893244482592104 0.14232387908559602
v 0.0725508916128499 -0.13893245527697065 0.19761001677772977
v 0.07524485907265245 -0.13893246701613837 0.14818045345027525
v 0.24934776793764252 -0.13893243308675332 0.1917534424130505
v 0.07524485219671113 -0.0788920557914968 0.14818042980984988
v 0.2493477610617012 -0.07889202186211174 0.19175341877262514
v 0.25204172852150375 -0.07889203360127947 0.14232385544517062
v 0.07255088473690859 -0.07889204405232908 0.19760999313730437
v 0.25204172852150375 -0.07889203360127947 0.14232385544517062
v 0.24934776793764252 -0.13893243308675332 0.1917534424130505
v 0.25204173539744507 -0.13893244482592104 0.14232387908559602
v 0.2493477610617012 -0.07889202186211174 0.19175341877262514
v 0.07524485907265245 -0.13893246701613837 0.14818045345027525
v 0.07255088473690859 -0.07889204405232908 0.19760999313730437
v 0.07524485219671113 -0.0788920557914968 0.14818042980984988
v 0.07524485907265245 -0.13893246701613837 0.14818045345027525
v 0.0725508916128499 -0.13893245527697065 0.19761001677772977
v 0.07255088473690859 -0.07889204405232908 0.19760999313730437
v 0.07524485907265245 -0.13893246701613837 0.14818045345027525
v 0.25204172852150375 -0.07889203360127947 0.14232385544517062
v 0.25204173539744507 -0.13893244482592104 0.14232387908559602
v 0.07524485907265245 -0.13893246701613837 0.14818045345027525
v 0.07524485219671113 -0.0788920557914968 0.14818042980984988
v 0.25204172852150375 -0.07889203360127947 0.14232385544517062
v 0.07255088473690859 -0.07889204405232908 0.19760999313730437
v 0.24934776793764252 -0.13893243308675332 0.1917534424130505
v 0.2493477610617012 -0.07889202186211174 0.19175341877262514
v 0.0725508916128499 -0.13893245527697065 0.19761001677772977
vt 0.2548113167285919 0.6536158323287964
vt 0.470013827085495 0.8606126308441162
vt 0.00011357665061950684 0.9998531341552734
vt 0.4926895797252655 0.6348362565040588
vt 0.629881739616394 0.24801777303218842
vt 0.3413945138454437 0.0059027522802352905
vt 0.7236183881759644 0.00016461312770843506
vt 0.4021161198616028 0.3833162188529968
vt 0.2224610298871994 0.32873937487602234
vt 0.4926895797252655 0.6348362565040588
vt 0.2548113167285919 0.6536158323287964
vt 0.667833685874939 0.47317737340927124
vt 0.8631176948547363 0.44368040561676025
vt 0.4021161198616028 0.3833162188529968
vt 0.629881739616394 0.24801777303218842
vt 0.00011357665061950684 0.9998531341552734
vt 0.470013827085495 0.8606126308441162
vt 0.8635450601577759 0.9786841869354248
vt 0.00011357665061950684 0.9998531341552734
vt 0.2224610298871994 0.32873937487602234
vt 0.2548113167285919 0.6536158323287964
vt 0.8631176948547363 0.44368040561676025
vt 0.629881739616394 0.24801777303218842
vt 0.7236183881759644 0.00016461312770843506
vt 0.8635450601577759 0.9786841869354248
vt 0.4926895797252655 0.6348362565040588
vt 0.667833685874939 0.47317737340927124
vt 0.470013827085495 0.8606126308441162
vn 1.3362092591379192e-7 -0.9999999999999611 2.4477533968141845e-7
vn 1.3362092591379192e-7 -0.9999999999999611 2.4477533968141845e-7
vn 1.3362092591379192e-7 -0.9999999999999611 2.4477533968141845e-7
vn 1.3362092591379192e-7 -0.9999999999999611 2.4477533968141845e-7
vn -1.3362092591379192e-7 0.9999999999999611 -2.4477533968141845e-7
vn -1.3362092591379192e-7 0.9999999999999611 -2.4477533968141845e-7
vn -1.3362092591379192e-7 0.9999999999999611 -2.4477533968141845e-7
vn -1.3362092591379192e-7 0.9999999999999611 -2.4477533968141845e-7
vn 0.9985181134719603 1.3577976188299338e-7 0.054420373651595653
vn 0.9985181134719603 1.3577976188299338e-7 0.054420373651595653
vn 0.9985181134719603 1.3577976188299338e-7 0.054420373651595653
vn 0.9985181134719603 1.3577976188299338e-7 0.054420373651595653
vn -0.9985181134719603 -1.3577976188299338e-7 -0.054420373651595653
vn -0.9985181134719603 -1.3577976188299338e-7 -0.054420373651595653
vn -0.9985181134719603 -1.3577976188299338e-7 -0.054420373651595653
vn -0.9985181134719603 -1.3577976188299338e-7 -0.054420373651595653
vn -0.9985181134719603 -1.3577976188299338e-7 -0.054420373651595653
vn -0.9985181134719603 -1.3577976188299338e-7 -0.054420373651595653
vn -0.03310784570672766 -3.97317614302258e-7 -0.9994517850064111
vn -0.03310784570672766 -3.97317614302258e-7 -0.9994517850064111
vn -0.03310784570672766 -3.97317614302258e-7 -0.9994517850064111
vn -0.03310784570672766 -3.97317614302258e-7 -0.9994517850064111
vn -0.03310784570672766 -3.97317614302258e-7 -0.9994517850064111
vn -0.03310784570672766 -3.97317614302258e-7 -0.9994517850064111
vn 0.03310784570672766 3.97317614302258e-7 0.9994517850064111
vn 0.03310784570672766 3.97317614302258e-7 0.9994517850064111
vn 0.03310784570672766 3.97317614302258e-7 0.9994517850064111
vn 0.03310784570672766 3.97317614302258e-7 0.9994517850064111
f 197/197/197 198/198/198 199/199/199
f 197/197/197 200/200/200 198/198/198
f 201/201/201 202/202/202 203/203/203
f 201/201/201 204/204/204 202/202/202
f 205/205/205 206/206/206 207/207/207
f 205/205/205 208/208/208 206/206/206
f 209/209/209 210/210/210 211/211/211
f 212/212/212 213/213/213 214/214/214
f 215/215/215 216/216/216 217/217/217
f 218/218/218 219/219/219 220/220/220
f 221/221/221 222/222/222 223/223/223
f 221/221/221 224/224/224 222/222/222
o Object_32
usemtl material_2
v 0.2540100595818628 -0.20923046089724062 0.14225868650537293
v 0.07451921579726763 -0.20923047134829023 0.19754482419750669
v 0.07721318325707018 -0.20923048308745795 0.14811526087005217
v 0.25131609212206024 -0.2092304491580729 0.19168824983282742
v 0.07721317638112886 -0.14919007186281638 0.1481152372296268
v 0.2513160852461189 -0.14919003793343133 0.19168822619240206
v 0.2540100527059215 -0.14919004967259905 0.14225866286494754
v 0.07451920892132631 -0.14919006012364866 0.1975448005570813
v 0.2540100527059215 -0.14919004967259905 0.14225866286494754
v 0.25131609212206024 -0.2092304491580729 0.19168824983282742
v 0.2540100595818628 -0.20923046089724062 0.14225868650537293
v 0.2513160852461189 -0.14919003793343133 0.19168822619240206
v 0.07721318325707018 -0.20923048308745795 0.14811526087005217
v 0.07451920892132631 -0.14919006012364866 0.1975448005570813
v 0.07721317638112886 -0.14919007186281638 0.1481152372296268
v 0.07721318325707018 -0.20923048308745795 0.14811526087005217
v 0.07451921579726763 -0.20923047134829023 0.19754482419750669
v 0.07451920892132631 -0.14919006012364866 0.1975448005570813
v 0.07721318325707018 -0.20923048308745795 0.14811526087005217
v 0.2540100527059215 -0.14919004967259905 0.14225866286494754
v 0.2540100595818628 -0.20923046089724062 0.14225868650537293
v 0.07721318325707018 -0.20923048308745795 0.14811526087005217
v 0.07721317638112886 -0.14919007186281638 0.1481152372296268
v 0.2540100527059215 -0.14919004967259905 0.14225866286494754
v 0.07451920892132631 -0.14919006012364866 0.1975448005570813
v 0.25131609212206024 -0.2092304491580729 0.19168824983282742
v 0.2513160852461189 -0.14919003793343133 0.19168822619240206
v 0.07451921579726763 -0.20923047134829023 0.19754482419750669
vt 0.2548113167285919 0.6536158323287964
vt 0.470013827085495 0.8606126308441162
vt 0.00011357665061950684 0.9998531341552734
vt 0.4926895797252655 0.6348362565040588
vt 0.629881739616394 0.24801777303218842
vt 0.3413945138454437 0.0059027522802352905
vt 0.7236183881759644 0.00016461312770843506
vt 0.4021161198616028 0.3833162188529968
vt 0.2224610298871994 0.32873937487602234
vt 0.4926895797252655 0.6348362565040588
vt 0.2548113167285919 0.6536158323287964
vt 0.667833685874939 0.47317737340927124
vt 0.8631176948547363 0.44368040561676025
vt 0.4021161198616028 0.3833162188529968
vt 0.629881739616394 0.24801777303218842
vt 0.00011357665061950684 0.9998531341552734
vt 0.470013827085495 0.8606126308441162
vt 0.8635450601577759 0.9786841869354248
vt 0.00011357665061950684 0.9998531341552734
vt 0.2224610298871994 0.32873937487602234
vt 0.2548113167285919 0.6536158323287964
vt 0.8631176948547363 0.44368040561676025
vt 0.629881739616394 0.24801777303218842
vt 0.7236183881759644 0.00016461312770843506
vt 0.8635450601577759 0.9786841869354248
vt 0.4926895797252655 0.6348362565040588
vt 0.667833685874939 0.47317737340927124
vt 0.470013827085495 0.8606126308441162
vn 1.3362092591379192e-7 -0.9999999999999611 2.4477533968141845e-7
vn 1.3362092591379192e-7 -0.9999999999999611 2.4477533968141845e-7
vn 1.3362092591379192e-7 -0.9999999999999611 2.4477533968141845e-7
vn 1.3362092591379192e-7 -0.9999999999999611 2.4477533968141845e-7
vn -1.3362092591379192e-7 0.9999999999999611 -2.4477533968141845e-7
vn -1.3362092591379192e-7 0.9999999999999611 -2.4477533968141845e-7
vn -1.3362092591379192e-7 0.9999999999999611 -2.4477533968141845e-7
vn -1.3362092591379192e-7 0.9999999999999611 -2.4477533968141845e-7
vn 0.9985181134719603 1.3577976188299338e-7 0.054420373651595653
vn 0.9985181134719603 1.3577976188299338e-7 0.054420373651595653
vn 0.9985181134719603 1.3577976188299338e-7 0.054420373651595653
vn 0.9985181134719603 1.3577976188299338e-7 0.054420373651595653
vn -0.9985181134719603 -1.3577976188299338e-7 -0.054420373651595653
vn -0.9985181134719603 -1.3577976188299338e-7 -0.054420373651595653
vn -0.9985181134719603 -1.3577976188299338e-7 -0.054420373651595653
vn -0.9985181134719603 -1.3577976188299338e-7 -0.054420373651595653
vn -0.9985181134719603 -1.3577976188299338e-7 -0.054420373651595653
vn -0.9985181134719603 -1.3577976188299338e-7 -0.054420373651595653
vn -0.03310784570672766 -3.97317614302258e-7 -0.9994517850064111
vn -0.03310784570672766 -3.97317614302258e-7 -0.9994517850064111
vn -0.03310784570672766 -3.97317614302258e-7 -0.9994517850064111
vn -0.03310784570672766 -3.97317614302258e-7 -0.9994517850064111
vn -0.03310784570672766 -3.97317614302258e-7 -0.9994517850064111
vn -0.03310784570672766 -3.97317614302258e-7 -0.9994517850064111
vn 0.03310784570672766 3.97317614302258e-7 0.9994517850064111
vn 0.03310784570672766 3.97317614302258e-7 0.9994517850064111
vn 0.03310784570672766 3.97317614302258e-7 0.9994517850064111
vn 0.03310784570672766 3.97317614302258e-7 0.9994517850064111
f 225/225/225 226/226/226 227/227/227
f 225/225/225 228/228/228 226/226/226
f 229/229/229 230/230/230 231/231/231
f 229/229/229 232/232/232 230/230/230
f 233/233/233 234/234/234 235/235/235
f 233/233/233 236/236/236 234/234/234
f 237/237/237 238/238/238 239/239/239
f 240/240/240 241/241/241 242/242/242
f 243/243/243 244/244/244 245/245/245
f 246/246/246 247/247/247 248/248/248
f 249/249/249 250/250/250 251/251/251
f 249/249/249 252/252/252 250/250/250
o Object_36
usemtl material_3
v 0.004042532013804868 -0.28839252363394935 0.15053897693085136
v -0.0002275806768958985 0.028228087125260648 0.22888508779174452
v 0.004042358887126202 0.02822807578784381 0.1505390023766961
v -0.0002274075502172318 -0.2883925122965325 0.22888506234589978
v 0.09984157327354105 0.028228132222985147 0.14736556231077746
v 0.09557180683619762 -0.2883924558613912 0.22571162227998115
v 0.09984174640021973 -0.288392467198808 0.14736553686493273
v 0.09557163370951896 0.028228143560401986 0.2257116477258259
v 0.09984174640021973 -0.288392467198808 0.14736553686493273
v -0.0002274075502172318 -0.2883925122965325 0.22888506234589978
v 0.004042532013804868 -0.28839252363394935 0.15053897693085136
v 0.09557180683619762 -0.2883924558613912 0.22571162227998115
v 0.004042358887126202 0.02822807578784381 0.1505390023766961
v 0.09557163370951896 0.028228143560401986 0.2257116477258259
v 0.09984157327354105 0.028228132222985147 0.14736556231077746
v 0.004042358887126202 0.02822807578784381 0.1505390023766961
v -0.0002275806768958985 0.028228087125260648 0.22888508779174452
v 0.09557163370951896 0.028228143560401986 0.2257116477258259
v 0.004042358887126202 0.02822807578784381 0.1505390023766961
v 0.09984174640021973 -0.288392467198808 0.14736553686493273
v 0.004042532013804868 -0.28839252363394935 0.15053897693085136
v 0.004042358887126202 0.02822807578784381 0.1505390023766961
v 0.09984157327354105 0.028228132222985147 0.14736556231077746
v 0.09984174640021973 -0.288392467198808 0.14736553686493273
v 0.09557163370951896 0.028228143560401986 0.2257116477258259
v -0.0002274075502172318 -0.2883925122965325 0.22888506234589978
v 0.09557180683619762 -0.2883924558613912 0.22571162227998115
v -0.0002275806768958985 0.028228087125260648 0.22888508779174452
vt 0.2548113167285919 0.6536158323287964
vt 0.470013827085495 0.8606126308441162
vt 0.00011357665061950684 0.9998531341552734
vt 0.4926895797252655 0.6348362565040588
vt 0.629881739616394 0.24801777303218842
vt 0.3413945138454437 0.0059027522802352905
vt 0.7236183881759644 0.00016461312770843506
vt 0.4021161198616028 0.3833162188529968
vt 0.2224610298871994 0.32873937487602234
vt 0.4926895797252655 0.6348362565040588
vt 0.2548113167285919 0.6536158323287964
vt 0.667833685874939 0.47317737340927124
vt 0.8631176948547363 0.44368040561676025
vt 0.4021161198616028 0.3833162188529968
vt 0.629881739616394 0.24801777303218842
vt 0.00011357665061950684 0.9998531341552734
vt 0.470013827085495 0.8606126308441162
vt 0.8635450601577759 0.9786841869354248
vt 0.00011357665061950684 0.9998531341552734
vt 0.2224610298871994 0.32873937487602234
vt 0.2548113167285919 0.6536158323287964
vt 0.8631176948547363 0.44368040561676025
vt 0.629881739616394 0.24801777303218842
vt 0.7236183881759644 0.00016461312770843506
vt 0.8635450601577759 0.9786841869354248
vt 0.4926895797252655 0.6348362565040588
vt 0.667833685874939 0.47317737340927124
vt 0.470013827085495 0.8606126308441162
vn -0.9985181212707172 -5.416114981214562e-7 -0.05442023055540912
vn -0.9985181212707172 -5.416114981214562e-7 -0.05442023055540912
vn -0.9985181212707172 -5.416114981214562e-7 -0.05442023055540912
vn -0.9985181212707172 -5.416114981214562e-7 -0.05442023055540912
vn 0.9985181212707172 5.416114981214562e-7 0.05442023055540912
vn 0.9985181212707172 5.416114981214562e-7 0.05442023055540912
vn 0.9985181212707172 5.416114981214562e-7 0.05442023055540912
vn 0.9985181212707172 5.416114981214562e-7 0.05442023055540912
vn 5.949659512227889e-7 -0.9999999999998073 1.7713565924496464e-7
vn 5.949659512227889e-7 -0.9999999999998073 1.7713565924496464e-7
vn 5.949659512227889e-7 -0.9999999999998073 1.7713565924496464e-7
vn 5.949659512227889e-7 -0.9999999999998073 1.7713565924496464e-7
vn -5.949659512227889e-7 0.9999999999998073 -1.7713565924496464e-7
vn -5.949659512227889e-7 0.9999999999998073 -1.7713565924496464e-7
vn -5.949659512227889e-7 0.9999999999998073 -1.7713565924496464e-7
vn -5.949659512227889e-7 0.9999999999998073 -1.7713565924496464e-7
vn -5.949659512227889e-7 0.9999999999998073 -1.7713565924496464e-7
vn -5.949659512227889e-7 0.9999999999998073 -1.7713565924496464e-7
vn -0.03310779075369547 6.221974556105103e-8 -0.9994517868268612
vn -0.03310779075369547 6.221974556105103e-8 -0.9994517868268612
vn -0.03310779075369547 6.221974556105103e-8 -0.9994517868268612
vn -0.03310779075369547 6.221974556105103e-8 -0.9994517868268612
vn -0.03310779075369547 6.221974556105103e-8 -0.9994517868268612
vn -0.03310779075369547 6.221974556105103e-8 -0.9994517868268612
vn 0.03310779075369547 -6.221974556105103e-8 0.9994517868268612
vn 0.03310779075369547 -6.221974556105103e-8 0.9994517868268612
vn 0.03310779075369547 -6.221974556105103e-8 0.9994517868268612
vn 0.03310779075369547 -6.221974556105103e-8 0.9994517868268612
f 253/253/253 254/254/254 255/255/255
f 253/253/253 256/256/256 254/254/254
f 257/257/257 258/258/258 259/259/259
f 257/257/257 260/260/260 258/258/258
f 261/261/261 262/262/262 263/263/263
f 261/261/261 264/264/264 262/262/262
f 265/265/265 266/266/266 267/267/267
f 268/268/268 269/269/269 270/270/270
f 271/271/271 272/272/272 273/273/273
f 274/274/274 275/275/275 276/276/276
f 277/277/277 278/278/278 279/279/279
f 277/277/277 280/280/280 278/278/278
o Object_40
usemtl material_2
v 0.24911015544997345 -0.06575873188689707 0.14242110916238587
v 0.06961931166537828 -0.06575874233794668 0.19770724685451962
v 0.07231327912518083 -0.06575875407711441 0.1482776835270651
v 0.2464161879901709 -0.06575872014772935 0.19185067248984036
v 0.07231327224923952 -0.005718342852472826 0.14827765988663974
v 0.24641618111422958 -0.005718308923087768 0.191850648849415
v 0.24911014857403213 -0.0057183206622554925 0.14242108552196048
v 0.06961930478943697 -0.0057183311133051015 0.19770722321409423
v 0.24911014857403213 -0.0057183206622554925 0.14242108552196048
v 0.2464161879901709 -0.06575872014772935 0.19185067248984036
v 0.24911015544997345 -0.06575873188689707 0.14242110916238587
v 0.24641618111422958 -0.005718308923087768 0.191850648849415
v 0.07231327912518083 -0.06575875407711441 0.1482776835270651
v 0.06961930478943697 -0.0057183311133051015 0.19770722321409423
v 0.07231327224923952 -0.005718342852472826 0.14827765988663974
v 0.07231327912518083 -0.06575875407711441 0.1482776835270651
v 0.06961931166537828 -0.06575874233794668 0.19770724685451962
v 0.06961930478943697 -0.0057183311133051015 0.19770722321409423
v 0.07231327912518083 -0.06575875407711441 0.1482776835270651
v 0.24911014857403213 -0.0057183206622554925 0.14242108552196048
v 0.24911015544997345 -0.06575873188689707 0.14242110916238587
v 0.07231327912518083 -0.06575875407711441 0.1482776835270651
v 0.07231327224923952 -0.005718342852472826 0.14827765988663974
v 0.24911014857403213 -0.0057183206622554925 0.14242108552196048
v 0.06961930478943697 -0.0057183311133051015 0.19770722321409423
v 0.2464161879901709 -0.06575872014772935 0.19185067248984036
v 0.24641618111422958 -0.005718308923087768 0.191850648849415
v 0.06961931166537828 -0.06575874233794668 0.19770724685451962
vt 0.2548113167285919 0.6536158323287964
vt 0.470013827085495 0.8606126308441162
vt 0.00011357665061950684 0.9998531341552734
vt 0.4926895797252655 0.6348362565040588
vt 0.629881739616394 0.24801777303218842
vt 0.3413945138454437 0.0059027522802352905
vt 0.7236183881759644 0.00016461312770843506
vt 0.4021161198616028 0.3833162188529968
vt 0.2224610298871994 0.32873937487602234
vt 0.4926895797252655 0.6348362565040588
vt 0.2548113167285919 0.6536158323287964
vt 0.667833685874939 0.47317737340927124
vt 0.8631176948547363 0.44368040561676025
vt 0.4021161198616028 0.3833162188529968
vt 0.629881739616394 0.24801777303218842
vt 0.00011357665061950684 0.9998531341552734
vt 0.470013827085495 0.8606126308441162
vt 0.8635450601577759 0.9786841869354248
vt 0.00011357665061950684 0.9998531341552734
vt 0.2224610298871994 0.32873937487602234
vt 0.2548113167285919 0.6536158323287964
vt 0.8631176948547363 0.44368040561676025
vt 0.629881739616394 0.24801777303218842
vt 0.7236183881759644 0.00016461312770843506
vt 0.8635450601577759 0.9786841869354248
vt 0.4926895797252655 0.6348362565040588
vt 0.667833685874939 0.47317737340927124
vt 0.470013827085495 0.8606126308441162
vn 1.3362092591379192e-7 -0.9999999999999611 2.4477533968141845e-7
vn 1.3362092591379192e-7 -0.9999999999999611 2.4477533968141845e-7
vn 1.3362092591379192e-7 -0.9999999999999611 2.4477533968141845e-7
vn 1.3362092591379192e-7 -0.9999999999999611 2.4477533968141845e-7
vn -1.3362092591379192e-7 0.9999999999999611 -2.4477533968141845e-7
vn -1.3362092591379192e-7 0.9999999999999611 -2.4477533968141845e-7
vn -1.3362092591379192e-7 0.9999999999999611 -2.4477533968141845e-7
vn -1.3362092591379192e-7 0.9999999999999611 -2.4477533968141845e-7
vn 0.9985181134719603 1.3577976188299338e-7 0.054420373651595653
vn 0.9985181134719603 1.3577976188299338e-7 0.054420373651595653
vn 0.9985181134719603 1.3577976188299338e-7 0.054420373651595653
vn 0.9985181134719603 1.3577976188299338e-7 0.054420373651595653
vn -0.9985181134719603 -1.3577976188299338e-7 -0.054420373651595653
vn -0.9985181134719603 -1.3577976188299338e-7 -0.054420373651595653
vn -0.9985181134719603 -1.3577976188299338e-7 -0.054420373651595653
vn -0.9985181134719603 -1.3577976188299338e-7 -0.054420373651595653
vn -0.9985181134719603 -1.3577976188299338e-7 -0.054420373651595653
vn -0.9985181134719603 -1.3577976188299338e-7 -0.054420373651595653
vn -0.03310784570672766 -3.97317614302258e-7 -0.9994517850064111
vn -0.03310784570672766 -3.97317614302258e-7 -0.9994517850064111
vn -0.03310784570672766 -3.97317614302258e-7 -0.9994517850064111
vn -0.03310784570672766 -3.97317614302258e-7 -0.9994517850064111
vn -0.03310784570672766 -3.97317614302258e-7 -0.9994517850064111
vn -0.03310784570672766 -3.97317614302258e-7 -0.9994517850064111
vn 0.03310784570672766 3.97317614302258e-7 0.9994517850064111
vn 0.03310784570672766 3.97317614302258e-7 0.9994517850064111
vn 0.03310784570672766 3.97317614302258e-7 0.9994517850064111
vn 0.03310784570672766 3.97317614302258e-7 0.9994517850064111
f 281/281/281 282/282/282 283/283/283
f 281/281/281 284/284/284 282/282/282
f 285/285/285 286/286/286 287/287/287
f 285/285/285 288/288/288 286/286/286
f 289/289/289 290/290/290 291/291/291
f 289/289/289 292/292/292 290/290/290
f 293/293/293 294/294/294 295/295/295
f 296/296/296 297/297/297 298/298/298
f 299/299/299 300/300/300 301/301/301
f 302/302/302 303/303/303 304/304/304
f 305/305/305 306/306/306 307/307/307
f 305/305/305 308/308/308 306/306/306
